<?xml version="1.0" encoding="utf-8"?>
<!-- Generator: Adobe Illustrator 19.0.0, SVG Export Plug-In . SVG Version: 6.00 Build 0)  -->
<svg version="1.1" xmlns="http://www.w3.org/2000/svg" xmlns:xlink="http://www.w3.org/1999/xlink" x="0px" y="0px"
	 viewBox="0 0 1000 452.4" style="enable-background:new 0 0 1000 452.4;" xml:space="preserve">
<style type="text/css">
	.st0{opacity:0.18;}
	.st1{fill:#B5C3C2;}
	.st2{opacity:0.29;fill:#B5C3C2;}
	.st3{fill:#95A9A7;}
	.st4{fill:#658280;}
	.st5{opacity:0.29;fill:#658280;}
	.st6{opacity:0.52;}
	.st7{fill:#FFFFFF;}
	.st8{opacity:0.5;fill:#FFFFFF;}
	.st9{opacity:0.33;fill:#FFFFFF;}
	.st10{opacity:0.4;fill:#FFFFFF;}
</style>
<g id="Bg">
</g>
<g id="Shadow">
	<g class="st0">
		<g>
			<g>
				<rect x="292.3" y="471" class="st1" width="40.4" height="77.6"/>
				<rect x="298.9" y="521.6" class="st1" width="27.2" height="32.6"/>
				<rect x="304.9" y="539.6" class="st1" width="15.1" height="18.1"/>
				<polygon class="st1" points="317.6,548.4 307.3,548.4 307.3,560.7 311,560.7 314.7,560.7 317.6,560.7 				"/>
				<g>
					<polygon class="st1" points="311.8,553.8 310.7,553.8 310.7,566.1 311.1,566.1 311.5,566.1 311.8,566.1 					"/>
					<polygon class="st1" points="314.3,558 313.1,558 313.1,570.4 313.5,570.4 313.9,570.4 314.3,570.4 					"/>
				</g>
				<rect x="291.2" y="548" class="st1" width="42.6" height="0.8"/>
				<rect x="297.9" y="553.8" class="st1" width="29.2" height="0.8"/>
				<rect x="303.8" y="557.4" class="st1" width="16.8" height="0.6"/>
				<rect x="301.4" y="549.4" class="st2" width="1.3" height="3.4"/>
				<rect x="304.9" y="549.4" class="st2" width="1.3" height="3.4"/>
				<rect x="308.4" y="549.4" class="st2" width="1.3" height="3.4"/>
				<rect x="311.9" y="549.4" class="st2" width="1.3" height="3.4"/>
				<rect x="315.4" y="549.4" class="st2" width="1.3" height="3.4"/>
				<rect x="318.9" y="549.4" class="st2" width="1.3" height="3.4"/>
				<rect x="322.4" y="549.4" class="st2" width="1.3" height="3.4"/>
				<rect x="295.8" y="541.5" class="st1" width="3.1" height="4.1"/>
				<rect x="301.9" y="541.5" class="st2" width="3.1" height="4.1"/>
				<rect x="307.9" y="541.5" class="st1" width="3.1" height="4.1"/>
				<rect x="314" y="541.5" class="st1" width="3.1" height="4.1"/>
				<rect x="320" y="541.5" class="st1" width="3.1" height="4.1"/>
				<rect x="326.1" y="541.5" class="st1" width="3.1" height="4.1"/>
				<rect x="295.8" y="535.2" class="st1" width="3.1" height="4.1"/>
				<rect x="301.9" y="535.2" class="st1" width="3.1" height="4.1"/>
				<rect x="307.9" y="535.2" class="st1" width="3.1" height="4.1"/>
				<rect x="314" y="535.2" class="st2" width="3.1" height="4.1"/>
				<rect x="320" y="535.2" class="st1" width="3.1" height="4.1"/>
				<rect x="326.1" y="535.2" class="st1" width="3.1" height="4.1"/>
				<rect x="295.8" y="528.8" class="st1" width="3.1" height="4.1"/>
				<rect x="301.9" y="528.8" class="st1" width="3.1" height="4.1"/>
				<rect x="307.9" y="528.8" class="st1" width="3.1" height="4.1"/>
				<rect x="314" y="528.8" class="st1" width="3.1" height="4.1"/>
				<rect x="320" y="528.8" class="st2" width="3.1" height="4.1"/>
				<rect x="326.1" y="528.8" class="st2" width="3.1" height="4.1"/>
				<rect x="295.8" y="522.5" class="st2" width="3.1" height="4.1"/>
				<rect x="301.9" y="522.5" class="st1" width="3.1" height="4.1"/>
				<rect x="307.9" y="522.5" class="st1" width="3.1" height="4.1"/>
				<rect x="314" y="522.5" class="st1" width="3.1" height="4.1"/>
				<rect x="320" y="522.5" class="st1" width="3.1" height="4.1"/>
				<rect x="326.1" y="522.5" class="st1" width="3.1" height="4.1"/>
				<rect x="295.8" y="516.2" class="st1" width="3.1" height="4.1"/>
				<rect x="301.9" y="516.2" class="st2" width="3.1" height="4.1"/>
				<rect x="307.9" y="516.2" class="st1" width="3.1" height="4.1"/>
				<rect x="314" y="516.2" class="st2" width="3.1" height="4.1"/>
				<rect x="320" y="516.2" class="st1" width="3.1" height="4.1"/>
				<rect x="326.1" y="516.2" class="st1" width="3.1" height="4.1"/>
				<rect x="295.8" y="509.9" class="st1" width="3.1" height="4.1"/>
				<rect x="301.9" y="509.9" class="st1" width="3.1" height="4.1"/>
				<rect x="307.9" y="509.9" class="st1" width="3.1" height="4.1"/>
				<rect x="314" y="509.9" class="st1" width="3.1" height="4.1"/>
				<rect x="320" y="509.9" class="st1" width="3.1" height="4.1"/>
				<rect x="326.1" y="509.9" class="st2" width="3.1" height="4.1"/>
				<rect x="295.8" y="503.6" class="st1" width="3.1" height="4.1"/>
				<rect x="301.9" y="503.6" class="st2" width="3.1" height="4.1"/>
				<rect x="307.9" y="503.6" class="st2" width="3.1" height="4.1"/>
				<rect x="314" y="503.6" class="st1" width="3.1" height="4.1"/>
				<rect x="320" y="503.6" class="st1" width="3.1" height="4.1"/>
				<rect x="326.1" y="503.6" class="st1" width="3.1" height="4.1"/>
				<rect x="295.8" y="497.3" class="st1" width="3.1" height="4.1"/>
				<rect x="301.9" y="497.3" class="st1" width="3.1" height="4.1"/>
				<rect x="307.9" y="497.3" class="st1" width="3.1" height="4.1"/>
				<rect x="314" y="497.3" class="st1" width="3.1" height="4.1"/>
				<rect x="320" y="497.3" class="st2" width="3.1" height="4.1"/>
				<rect x="326.1" y="497.3" class="st1" width="3.1" height="4.1"/>
				<rect x="295.8" y="490.9" class="st1" width="3.1" height="4.1"/>
				<rect x="301.9" y="490.9" class="st2" width="3.1" height="4.1"/>
				<rect x="307.9" y="490.9" class="st1" width="3.1" height="4.1"/>
				<rect x="314" y="490.9" class="st1" width="3.1" height="4.1"/>
				<rect x="320" y="490.9" class="st1" width="3.1" height="4.1"/>
				<rect x="326.1" y="490.9" class="st1" width="3.1" height="4.1"/>
				<rect x="295.8" y="484.6" class="st1" width="3.1" height="4.1"/>
				<rect x="301.9" y="484.6" class="st1" width="3.1" height="4.1"/>
				<rect x="307.9" y="484.6" class="st1" width="3.1" height="4.1"/>
				<rect x="314" y="484.6" class="st2" width="3.1" height="4.1"/>
				<rect x="320" y="484.6" class="st1" width="3.1" height="4.1"/>
				<rect x="326.1" y="484.6" class="st2" width="3.1" height="4.1"/>
				<rect x="295.8" y="478.3" class="st2" width="3.1" height="4.1"/>
				<rect x="301.9" y="478.3" class="st1" width="3.1" height="4.1"/>
				<rect x="307.9" y="478.3" class="st2" width="3.1" height="4.1"/>
				<rect x="314" y="478.3" class="st1" width="3.1" height="4.1"/>
				<rect x="320" y="478.3" class="st1" width="3.1" height="4.1"/>
				<rect x="326.1" y="478.3" class="st1" width="3.1" height="4.1"/>
			</g>
			<g>
				<rect x="174.9" y="480.3" class="st1" width="64.9" height="65.4"/>
				<rect x="173.1" y="544.9" class="st1" width="68.6" height="1.8"/>
				<rect x="177.1" y="540.4" class="st1" width="60.6" height="8.8"/>
				<rect x="181.8" y="543.2" class="st1" width="24" height="9.6"/>
				<polygon class="st1" points="195.6,550.1 181.8,550.1 181.8,555.1 191.7,555.1 				"/>
				<rect x="187.4" y="548" class="st1" width="1.3" height="11.2"/>
				<ellipse class="st1" cx="188" cy="559.9" rx="1.2" ry="0.6"/>
			</g>
			<polygon class="st1" points="777.7,475.3 706.6,475.3 697.7,571.4 777.7,563.4 			"/>
			<polygon class="st1" points="467.5,530.2 467.5,562.3 456.4,562.3 456.4,571 452.4,571 452.4,583.6 430.4,583.6 430.4,592.8 
				428.5,592.8 428.5,583.6 424.2,583.6 424.2,595.2 422.2,595.2 422.2,583.6 408.4,583.6 408.4,562.3 401.2,562.3 401.2,530.2 
				395.1,530.2 395.1,471.7 471.8,471.7 471.8,530.2 			"/>
		</g>
		<rect x="84.2" y="466.8" class="st1" width="849.4" height="9.7"/>
		<polygon class="st3" points="584.1,469.2 546.5,469.2 561.2,505.5 584.1,505.5 		"/>
		<g>
			<rect x="53.7" y="452.4" class="st3" width="891.8" height="15.4"/>
			<polygon class="st3" points="553.3,536.4 553.3,552.5 541.2,552.5 541.2,558.6 534.8,558.6 534.8,563.8 532.5,563.8 532.5,572.6 
				531.9,572.6 531.9,563.8 529.7,563.8 529.7,558.6 523.2,558.6 523.2,552.5 511.2,552.5 511.2,536.4 508.7,536.4 508.7,507.2 
				490.1,507.2 490.1,473.9 508.7,473.9 527.3,473.9 555.7,473.9 555.7,536.4 			"/>
			<polygon class="st3" points="622.7,517.9 564.3,517.9 564.3,517.4 566.9,517.4 566.9,469.7 620.1,469.7 620.1,517.4 622.7,517.4 
							"/>
			<rect x="304.3" y="466.3" class="st3" width="51.8" height="39.7"/>
			<rect x="207.4" y="466.3" class="st3" width="89.1" height="19.4"/>
			<rect x="255.2" y="481.4" class="st3" width="19.6" height="47.6"/>
			<rect x="259.5" y="515.8" class="st3" width="1" height="25.9"/>
			<rect x="262.8" y="513.8" class="st3" width="1" height="25.9"/>
			<rect x="256.7" y="525.5" class="st3" width="12" height="6.4"/>
			<rect x="293" y="466.3" class="st3" width="34.1" height="32.6"/>
			<rect x="364.6" y="466.3" class="st3" width="63.9" height="67.1"/>
			<rect x="370.9" y="524.6" class="st3" width="51.4" height="11.2"/>
			<rect x="359.6" y="531.3" class="st3" width="73.8" height="0.8"/>
			<rect x="353" y="466.3" class="st3" width="30.1" height="33.9"/>
			<rect x="137.3" y="466.3" class="st3" width="34.6" height="35.2"/>
			<g>
				<rect x="148.5" y="466.3" class="st3" width="68.9" height="44.8"/>
				<rect x="144.4" y="511.1" class="st3" width="74.7" height="1.7"/>
				<rect x="151.5" y="508.4" class="st3" width="30.3" height="9.1"/>
				<rect x="191.7" y="511.9" class="st3" width="5.1" height="5.5"/>
				<rect x="201.8" y="511.9" class="st3" width="5.6" height="5.5"/>
			</g>
			<rect x="118.5" y="466.3" class="st3" width="36.1" height="13.6"/>
			<rect x="104.8" y="466.3" class="st3" width="17.1" height="19.4"/>
			<rect x="84.2" y="466.3" class="st3" width="29.2" height="6.8"/>
			<rect x="422.2" y="466.3" class="st3" width="359.8" height="15.1"/>
			<path class="st3" d="M757.7,521.1c0-1.2-1.9-2.1-4.3-2.1c-2.3,0-4.3,0.9-4.3,2l-5.1,0.1c-0.3-3.4-1.9-6.7-4.7-9.7l4.6-1
				c0.6,0.8,2.2,1.4,4,1.4c2.4,0,4.3-0.9,4.3-2.1s-1.9-2.1-4.3-2.1s-4.3,0.9-4.3,2.1c0,0.2,0,0.3,0.1,0.5l-4.7,1
				c-2.6-2.7-6.2-5.1-10.6-7.3c-0.4-0.2-0.7-0.3-1.1-0.5l4.3-2.2c0.7,0.2,1.5,0.4,2.5,0.4c2.4,0,4.3-0.9,4.3-2.1
				c0-1.2-1.9-2.1-4.3-2.1c-2.4,0-4.3,0.9-4.3,2.1c0,0.6,0.6,1.2,1.5,1.6l-4.2,2.2c-3-1.3-6.3-2.5-9.7-3.5l26.1-23.2h4.7v-0.7h2.3
				v-1.3H631.1v1.3h2.3v0.7h4.7l26.1,23.2c-4,1.1-7.8,2.5-11.2,4.1c-0.4,0.2-0.7,0.3-1,0.5l-3.3-1.5c0.6-0.4,1-0.8,1-1.3
				c0-1.2-1.9-2.1-4.3-2.1s-4.3,0.9-4.3,2.1c0,1.2,1.9,2.1,4.3,2.1c1.2,0,2.2-0.2,3-0.6l3.3,1.5c-4.8,2.5-8.5,5.4-10.9,8.5l-4.2-0.8
				c0.1-0.2,0.2-0.4,0.2-0.6c0-1.2-1.9-2.1-4.3-2.1s-4.3,0.9-4.3,2.1c0,1.2,1.9,2.1,4.3,2.1c1.8,0,3.3-0.5,4-1.3l4.2,0.8
				c-2.1,2.8-3.2,5.7-3.2,8.8c0,0.2,0,0.5,0,0.7l-5.2,0.1c-0.2-1.1-2-1.9-4.3-1.9c-2.4,0-4.3,0.9-4.3,2.1c0,1.2,1.9,2.1,4.3,2.1
				c2.3,0,4.3-0.9,4.3-2l5.2-0.1c0.3,3.4,1.9,6.7,4.7,9.7l-4,0.9c-0.7-0.7-2.2-1.2-3.9-1.2c-2.4,0-4.3,0.9-4.3,2.1s1.9,2.1,4.3,2.1
				c2.4,0,4.3-0.9,4.3-2.1c0-0.2-0.1-0.5-0.2-0.7l4-0.9c2.6,2.7,6.2,5.1,10.6,7.3c0.4,0.2,0.7,0.3,1.1,0.5l-3.2,1.6
				c-0.8-0.3-1.8-0.5-2.8-0.5c-2.4,0-4.3,0.9-4.3,2.1c0,1.2,1.9,2.1,4.3,2.1s4.3-0.9,4.3-2.1c0-0.5-0.4-1-1.1-1.4l3.2-1.6
				c5.4,2.4,11.6,4.2,18.3,5.4l-1.7,2.4c-0.4-0.1-0.8-0.1-1.2-0.1c-2.4,0-4.3,0.9-4.3,2.1c0,1.2,1.9,2.1,4.3,2.1s4.3-0.9,4.3-2.1
				c0-0.9-1.1-1.6-2.7-1.9l1.7-2.4c5.6,0.9,11.4,1.4,17.5,1.4c0.5,0,1,0,1.5,0l0.2,2.9c-2.1,0.1-3.7,1-3.7,2.1
				c0,1.2,1.9,2.1,4.3,2.1s4.3-0.9,4.3-2.1s-1.9-2.1-4.3-2.1c0,0-0.1,0-0.1,0l-0.2-2.9c6.3-0.1,12.4-0.7,18.1-1.9l1.8,2.1
				c-1.5,0.3-2.6,1.1-2.6,1.9c0,1.2,1.9,2.1,4.3,2.1s4.3-0.9,4.3-2.1c0-1.2-1.9-2.1-4.3-2.1c-0.5,0-0.9,0-1.3,0.1l-1.8-2.1
				c6.4-1.3,12.2-3.2,17.2-5.6c0.4-0.2,0.7-0.3,1-0.5l3.3,1.5c-0.6,0.4-1,0.8-1,1.3c0,1.2,1.9,2.1,4.3,2.1s4.3-0.9,4.3-2.1
				c0-1.2-1.9-2.1-4.3-2.1c-1.2,0-2.2,0.2-3,0.6l-3.3-1.5c4.8-2.5,8.5-5.4,10.9-8.5l4.2,0.8c-0.1,0.2-0.2,0.4-0.2,0.6
				c0,1.2,1.9,2.1,4.3,2.1s4.3-0.9,4.3-2.1c0-1.2-1.9-2.1-4.3-2.1c-1.8,0-3.3,0.5-4,1.3l-4.2-0.8c2.1-2.8,3.2-5.7,3.2-8.8
				c0-0.2,0-0.5,0-0.7l5.1-0.1c0.2,1.1,2,1.9,4.3,1.9C755.7,523.1,757.7,522.2,757.7,521.1z M739.5,530.6l-14-2.5
				c1.4-1.9,2.2-3.9,2.2-6c0-0.2,0-0.3,0-0.5l14.9-0.2c0,0.2,0,0.5,0,0.7C742.5,525,741.5,527.9,739.5,530.6z M726.9,522
				c0,2.1-0.8,4.1-2.1,5.9l-31.2-5.6c0.1-0.1,0.1-0.2,0.1-0.3l33.3-0.5C726.9,521.7,726.9,521.9,726.9,522z M654.5,522
				c0-2.1,0.8-4.1,2.1-5.9l31.2,5.6c-0.1,0.1-0.1,0.2-0.1,0.3l-33.3,0.5C654.5,522.3,654.5,522.2,654.5,522z M693.3,522.6l31.2,5.6
				c-1.7,2.1-4.2,4.1-7.3,5.7l-24.3-11C693.1,522.8,693.2,522.7,693.3,522.6z M716.9,534c-3.4,1.7-7.6,3.1-12.3,4.1L692,523.3
				c0.2-0.1,0.4-0.1,0.6-0.2L716.9,534z M704.2,538.2c-3.8,0.7-7.8,1.2-12.1,1.3l-1.1-16.1c0.2,0,0.4,0,0.5-0.1L704.2,538.2z
				 M691.6,539.5c-0.3,0-0.6,0-0.9,0c-4.1,0-8.1-0.3-11.8-1l11.1-15.2c0.2,0,0.4,0,0.6,0L691.6,539.5z M678.4,538.5
				c-4.6-0.8-8.8-2-12.3-3.6l22.8-11.7c0.2,0.1,0.4,0.1,0.6,0.2L678.4,538.5z M665.8,534.7c-3.2-1.5-5.9-3.3-7.8-5.2l30.2-6.7
				c0.1,0.1,0.2,0.2,0.4,0.2L665.8,534.7z M657.7,529.2c-1.9-2-3-4.2-3.2-6.5l33.3-0.5c0,0.1,0.1,0.2,0.2,0.3L657.7,529.2z
				 M656.8,515.9c1.7-2.1,4.2-4.1,7.3-5.7l24,10.9l0.2,0.2c-0.1,0.1-0.2,0.1-0.3,0.2L656.8,515.9z M664.5,510c2.3-1.2,5-2.2,7.9-3
				l15.1,13.4L664.5,510z M673.2,506.8c1.1-0.3,2.3-0.6,3.5-0.8l12.6,14.9c-0.1,0-0.2,0.1-0.3,0.1L673.2,506.8z M677.2,505.8
				c3.8-0.7,7.8-1.2,12.1-1.3l1.1,16.1c-0.2,0-0.4,0-0.5,0.1L677.2,505.8z M702.5,505.5l-11.1,15.2c-0.2,0-0.4,0-0.6,0l-1.1-16.1
				c0.3,0,0.6,0,0.9,0C694.8,504.6,698.8,504.9,702.5,505.5z M703,505.6c1.8,0.3,3.6,0.7,5.3,1.2l-15.9,14.1c-0.1,0-0.3-0.1-0.5-0.1
				L703,505.6z M709,507c2.2,0.6,4.3,1.4,6.2,2.2l-20.7,10.7L709,507z M715.6,509.4c3.2,1.5,5.9,3.3,7.8,5.2l-30.2,6.7
				c-0.1,0-0.1-0.1-0.2-0.1l0.6-0.5L715.6,509.4z M723.7,514.8c1.9,2,3,4.2,3.2,6.5l-33.3,0.5c0-0.1-0.1-0.2-0.2-0.3L723.7,514.8z
				 M672.8,506.4l-7.1-6.3c1.6-0.4,3.3-0.8,5.1-1.2l5.7,6.7C675.2,505.8,674,506.1,672.8,506.4z M671.2,498.8
				c5.5-1.1,11.5-1.7,17.6-1.8l0.5,7.2c-4.4,0.1-8.5,0.5-12.4,1.3L671.2,498.8z M689.2,497c0.5,0,1,0,1.4,0c5.9,0,11.6,0.5,17,1.4
				l-5,6.8c-3.8-0.6-7.8-1-12-1c-0.3,0-0.6,0-1,0L689.2,497z M708.2,498.5c2.6,0.4,5.1,1,7.5,1.6l-7.1,6.3c-1.7-0.5-3.5-0.9-5.4-1.2
				L708.2,498.5z M728.7,539l-10.9-4.9c3.2-1.7,5.8-3.6,7.5-5.8l14,2.5C736.9,533.8,733.4,536.6,728.7,539z M710.6,545.1l-5.7-6.7
				c4.8-1,9-2.4,12.5-4.2l10.9,4.9c-0.3,0.2-0.7,0.3-1,0.5C722.5,542.1,716.8,543.9,710.6,545.1z M692.6,547l-0.5-7.2
				c4.4-0.1,8.5-0.5,12.4-1.3l5.7,6.7C704.6,546.3,698.7,546.9,692.6,547z M673.7,545.7l5-6.8c3.8,0.6,7.8,1,12,1c0.3,0,0.6,0,1,0
				l0.5,7.2c-0.5,0-1,0-1.4,0C684.8,547,679.1,546.6,673.7,545.7z M655.4,540.4l10.2-5.3c3.6,1.6,7.9,2.9,12.6,3.7l-5,6.8
				C666.7,544.5,660.6,542.7,655.4,540.4z M643.7,532.6l13.6-3c2,2,4.7,3.8,8,5.3l-10.2,5.3c-0.3-0.2-0.7-0.3-1-0.5
				C649.7,537.6,646.2,535.2,643.7,532.6z M638.9,523l14.9-0.2c0.2,2.4,1.3,4.6,3.3,6.7l-13.6,3C640.7,529.5,639.1,526.3,638.9,523z
				 M641.9,513.5l14,2.5c-1.4,1.9-2.2,3.9-2.2,6c0,0.2,0,0.3,0,0.5l-14.9,0.2c0-0.2,0-0.5,0-0.7
				C638.8,519.1,639.9,516.2,641.9,513.5z M652.7,505l10.9,4.9c-3.2,1.7-5.8,3.6-7.5,5.8l-14-2.5C644.4,510.2,648,507.4,652.7,505z
				 M664.9,500.3l7.1,6.3c-3,0.8-5.7,1.9-8.1,3.1l-10.9-4.9c0.3-0.2,0.7-0.3,1-0.5C657.3,502.8,660.9,501.4,664.9,500.3z
				 M716.4,499.5c-2.5-0.7-5.1-1.2-7.7-1.7l1.5-2.1c0.4,0.1,0.9,0.1,1.4,0.1c2.4,0,4.3-0.9,4.3-2.1c0-1.2-1.9-2.1-4.3-2.1
				c-2.4,0-4.3,0.9-4.3,2.1c0,0.8,1,1.6,2.5,1.9l-1.6,2.1c-5.6-0.9-11.4-1.4-17.5-1.4c-0.5,0-1,0-1.5,0l-0.1-2.2
				c2.2-0.1,3.9-1,3.9-2.1c0-1.2-1.9-2.1-4.3-2.1s-4.3,0.9-4.3,2.1c0,1.1,1.9,2.1,4.2,2.1l0.1,2.2c-6.3,0.1-12.4,0.7-18.1,1.9
				l-1.8-2.1c1.5-0.3,2.6-1.1,2.6-1.9c0-1.2-1.9-2.1-4.3-2.1s-4.3,0.9-4.3,2.1s1.9,2.1,4.3,2.1c0.5,0,0.9,0,1.3-0.1l1.8,2.1
				c-1.8,0.4-3.5,0.8-5.2,1.2l-25.8-23h103L716.4,499.5z M726,503.7l-10.2,5.3c-1.9-0.9-4.1-1.6-6.4-2.3l7.1-6.3
				C719.9,501.3,723.1,502.4,726,503.7z M737.7,511.4l-13.6,3c-2-2-4.7-3.8-8-5.3l10.2-5.3c0.3,0.2,0.7,0.3,1,0.5
				C731.7,506.4,735.2,508.8,737.7,511.4z M742.5,521.1l-14.9,0.2c-0.2-2.4-1.3-4.6-3.3-6.7l13.6-3
				C740.7,514.6,742.3,517.8,742.5,521.1z"/>
			<rect x="763.8" y="466.3" class="st3" width="55.6" height="39.3"/>
			<rect x="811.2" y="466.5" class="st3" width="55.6" height="23.8"/>
			<rect x="595.7" y="473.9" class="st3" width="31.2" height="20"/>
			<rect x="791.6" y="466.3" class="st3" width="39.3" height="76.6"/>
			<polygon class="st3" points="895.6,466.3 843.7,466.3 843.7,511.1 883,511.1 			"/>
			<rect x="872.9" y="466.3" class="st3" width="45.4" height="10.2"/>
			<rect x="820.7" y="538.1" class="st3" width="1.4" height="20.8"/>
			<rect x="825.3" y="533.7" class="st3" width="1.4" height="20.8"/>
			<rect x="816.5" y="530.8" class="st3" width="1.4" height="20.8"/>
			<rect x="845.8" y="507.6" class="st3" width="18.6" height="7.1"/>
			<rect x="847.8" y="513.2" class="st3" width="14.5" height="4"/>
			<rect x="871.7" y="509.8" class="st3" width="3.6" height="2.8"/>
			<rect x="876.5" y="509.8" class="st3" width="5.1" height="5.4"/>
		</g>
		<g>
			<g>
				<rect x="595.6" y="452.4" class="st4" width="47.1" height="73.3"/>
				<rect x="592" y="524.5" class="st4" width="54.2" height="0.7"/>
				<rect x="593.5" y="514.2" class="st4" width="51.2" height="0.7"/>
				<rect x="593.5" y="504.2" class="st4" width="51.2" height="0.7"/>
				<rect x="593.5" y="494.3" class="st4" width="51.2" height="0.7"/>
				<rect x="593.5" y="484.3" class="st4" width="51.2" height="0.7"/>
				<rect x="593.5" y="474.3" class="st4" width="51.2" height="0.7"/>
				<rect x="593.5" y="464.4" class="st4" width="51.2" height="0.7"/>
				<rect x="590.2" y="525.2" class="st4" width="57.7" height="2"/>
				<rect x="599.8" y="516.2" class="st5" width="4.9" height="5.9"/>
				<rect x="610.7" y="516.2" class="st4" width="4.9" height="5.9"/>
				<rect x="621.7" y="516.2" class="st4" width="4.9" height="5.9"/>
				<rect x="632.6" y="516.2" class="st4" width="4.9" height="5.9"/>
				<rect x="599.8" y="506.7" class="st4" width="4.9" height="5.9"/>
				<rect x="610.7" y="506.7" class="st5" width="4.9" height="5.9"/>
				<rect x="621.7" y="506.7" class="st4" width="4.9" height="5.9"/>
				<rect x="632.6" y="506.7" class="st4" width="4.9" height="5.9"/>
				<rect x="599.8" y="496.7" class="st4" width="4.9" height="5.9"/>
				<rect x="610.7" y="496.7" class="st4" width="4.9" height="5.9"/>
				<rect x="621.7" y="496.7" class="st4" width="4.9" height="5.9"/>
				<rect x="632.6" y="496.7" class="st5" width="4.9" height="5.9"/>
				<rect x="599.8" y="486.7" class="st4" width="4.9" height="5.9"/>
				<rect x="610.7" y="486.7" class="st5" width="4.9" height="5.9"/>
				<rect x="621.7" y="486.7" class="st5" width="4.9" height="5.9"/>
				<rect x="632.6" y="486.7" class="st4" width="4.9" height="5.9"/>
				<rect x="599.8" y="476.8" class="st5" width="4.9" height="5.9"/>
				<rect x="610.7" y="476.8" class="st4" width="4.9" height="5.9"/>
				<rect x="621.7" y="476.8" class="st4" width="4.9" height="5.9"/>
				<rect x="632.6" y="476.8" class="st4" width="4.9" height="5.9"/>
				<rect x="599.8" y="466.8" class="st4" width="4.9" height="5.9"/>
				<rect x="610.7" y="466.8" class="st4" width="4.9" height="5.9"/>
				<rect x="621.7" y="466.8" class="st5" width="4.9" height="5.9"/>
				<rect x="632.6" y="466.8" class="st4" width="4.9" height="5.9"/>
				<rect x="599.8" y="456.8" class="st4" width="4.9" height="5.9"/>
				<rect x="610.7" y="456.8" class="st5" width="4.9" height="5.9"/>
				<rect x="621.7" y="456.8" class="st4" width="4.9" height="5.9"/>
				<rect x="632.6" y="456.8" class="st5" width="4.9" height="5.9"/>
				<rect x="598.5" y="526.2" class="st4" width="16" height="3.8"/>
				<rect x="597.4" y="529.5" class="st4" width="18.2" height="0.7"/>
			</g>
			<g>
				<polygon class="st4" points="528,452.4 465.2,452.4 465.2,522 528,529.4 				"/>
				<rect x="462.5" y="452.4" class="st4" width="5.5" height="70.9"/>
				<rect x="478.2" y="452.4" class="st4" width="5.5" height="72.8"/>
				<rect x="493.9" y="452.4" class="st4" width="5.5" height="74.9"/>
				<rect x="509.6" y="452.4" class="st4" width="5.5" height="76.6"/>
				<rect x="525.3" y="452.4" class="st4" width="5.5" height="78.4"/>
				<rect x="469.4" y="511.9" class="st5" width="7.3" height="5.4"/>
				<rect x="485.1" y="511.9" class="st5" width="7.3" height="5.4"/>
				<rect x="500.8" y="511.9" class="st4" width="7.3" height="5.4"/>
				<rect x="516.5" y="511.9" class="st5" width="7.3" height="5.4"/>
				<rect x="469.4" y="502.5" class="st4" width="7.3" height="5.4"/>
				<rect x="485.1" y="502.5" class="st4" width="7.3" height="5.4"/>
				<rect x="500.8" y="502.5" class="st5" width="7.3" height="5.4"/>
				<rect x="516.5" y="502.5" class="st5" width="7.3" height="5.4"/>
				<rect x="469.4" y="493.2" class="st5" width="7.3" height="5.4"/>
				<rect x="485.1" y="493.2" class="st5" width="7.3" height="5.4"/>
				<rect x="500.8" y="493.2" class="st5" width="7.3" height="5.4"/>
				<rect x="516.5" y="493.2" class="st4" width="7.3" height="5.4"/>
				<rect x="469.4" y="483.8" class="st5" width="7.3" height="5.4"/>
				<rect x="485.1" y="483.8" class="st4" width="7.3" height="5.4"/>
				<rect x="500.8" y="483.8" class="st5" width="7.3" height="5.4"/>
				<rect x="516.5" y="483.8" class="st5" width="7.3" height="5.4"/>
				<rect x="469.4" y="474.4" class="st5" width="7.3" height="5.4"/>
				<rect x="485.1" y="474.4" class="st5" width="7.3" height="5.4"/>
				<rect x="500.8" y="474.4" class="st4" width="7.3" height="5.4"/>
				<rect x="516.5" y="474.4" class="st5" width="7.3" height="5.4"/>
				<rect x="469.4" y="465.1" class="st4" width="7.3" height="5.4"/>
				<rect x="485.1" y="465.1" class="st4" width="7.3" height="5.4"/>
				<rect x="500.8" y="465.1" class="st5" width="7.3" height="5.4"/>
				<rect x="516.5" y="465.1" class="st5" width="7.3" height="5.4"/>
				<rect x="469.4" y="455.7" class="st5" width="7.3" height="5.4"/>
				<rect x="485.1" y="455.7" class="st4" width="7.3" height="5.4"/>
				<rect x="500.8" y="455.7" class="st5" width="7.3" height="5.4"/>
				<rect x="516.5" y="455.7" class="st4" width="7.3" height="5.4"/>
			</g>
			<polygon class="st4" points="286.2,518.7 286.2,518 284.7,518 284.7,515.9 311,515.9 311,452.4 267.9,452.4 267.9,512.6 
				267.9,515.9 267.9,518 266.3,518 266.3,518.7 			"/>
			<rect x="359.6" y="452.4" class="st4" width="36.9" height="37.4"/>
			<g>
				<rect x="198.7" y="452.4" class="st4" width="30" height="46"/>
				<rect x="222.8" y="452.4" class="st4" width="32.7" height="36.4"/>
				<rect x="209.5" y="494.8" class="st4" width="13.3" height="5.5"/>
				<rect x="225" y="488.1" class="st4" width="34.9" height="1.3"/>
			</g>
			<rect x="252" y="452.4" class="st4" width="36.7" height="20.8"/>
			<rect x="133.5" y="452.4" class="st4" width="29.8" height="37.7"/>
			<rect x="107.6" y="452.4" class="st4" width="39.2" height="18.9"/>
			<rect x="64.4" y="452.4" class="st4" width="24.5" height="22"/>
			<rect x="84.2" y="452.4" class="st4" width="58" height="6.9"/>
			<rect x="42.2" y="452.4" class="st4" width="29.7" height="9.1"/>
			<rect x="163.3" y="452.4" class="st4" width="46.2" height="13.9"/>
			<rect x="298.9" y="452.4" class="st4" width="72" height="6"/>
			<rect x="426.5" y="452.4" class="st4" width="72" height="6"/>
			<polygon class="st4" points="368.1,476 340.7,476 329.1,455.4 368.1,455.4 			"/>
			<rect x="380.7" y="483.1" class="st4" width="0.8" height="22.9"/>
			<rect x="384.5" y="484.8" class="st4" width="1" height="13.5"/>
			<rect x="379.1" y="489.2" class="st4" width="13.8" height="6.7"/>
			<rect x="376.7" y="495.8" class="st4" width="18.3" height="0.6"/>
			<rect x="389.8" y="452.4" class="st4" width="44.7" height="19.3"/>
			<rect x="426" y="455.7" class="st4" width="28.7" height="37.3"/>
			<rect x="538.2" y="452.4" class="st4" width="45.9" height="33.6"/>
			<rect x="523.8" y="452.4" class="st4" width="52.3" height="12.4"/>
			<rect x="581.6" y="452.4" class="st4" width="34" height="4.4"/>
			<rect x="634" y="452.4" class="st4" width="55.3" height="12.4"/>
			<g>
				<rect x="656.1" y="452.4" class="st4" width="68.9" height="44.8"/>
				<rect x="654.3" y="497.1" class="st4" width="74.7" height="1.7"/>
				<rect x="691.6" y="494.4" class="st4" width="30.3" height="9.1"/>
				<rect x="676.7" y="498" class="st4" width="5.1" height="5.5"/>
				<rect x="666" y="498" class="st4" width="5.6" height="5.5"/>
			</g>
			<g>
				<rect x="772.3" y="452.4" class="st4" width="54.5" height="65.4"/>
				<rect x="770.7" y="517" class="st4" width="57.6" height="1.8"/>
				<rect x="774.1" y="512.5" class="st4" width="50.8" height="8.8"/>
				<rect x="800.9" y="515.2" class="st4" width="20.1" height="9.6"/>
				<polygon class="st4" points="809.4,522.1 821.1,522.1 821.1,527.2 812.7,527.2 				"/>
				<rect x="815.2" y="520.1" class="st4" width="1.1" height="11.2"/>
				<ellipse class="st4" cx="815.8" cy="531.9" rx="1" ry="0.6"/>
			</g>
			<rect x="819.3" y="452.4" class="st4" width="24.4" height="27"/>
			<rect x="749.8" y="452.4" class="st4" width="27.8" height="40.1"/>
			<polygon class="st4" points="763.8,452.4 724.6,452.4 724.6,473.9 757.7,466.8 			"/>
			<rect x="835.7" y="452.4" class="st4" width="59.9" height="11.7"/>
			<rect x="873.5" y="452.4" class="st4" width="34.8" height="46.5"/>
			<rect x="900.1" y="452.4" class="st4" width="57.6" height="8.7"/>
			<rect x="871.7" y="498.3" class="st4" width="38.1" height="1.5"/>
			<rect x="902.8" y="497" class="st4" width="0.8" height="9.4"/>
			<rect x="897.7" y="497.6" class="st4" width="0.8" height="7.5"/>
			<polygon class="st4" points="921.1,481.4 905.6,481.4 905.6,460.1 927.7,460.1 			"/>
		</g>
	</g>
</g>
<g id="Object">
	<g>
		<g>
			<g>
				<rect x="292.3" y="252.3" class="st1" width="40.4" height="160.8"/>
				<rect x="298.9" y="240.8" class="st1" width="27.2" height="67.6"/>
				<rect x="304.9" y="233.5" class="st1" width="15.1" height="37.5"/>
				<polygon class="st1" points="317.6,252.7 307.3,252.7 307.3,227.2 311,227.2 314.7,227.2 317.6,227.2 				"/>
				<g>
					<polygon class="st1" points="311.8,241.6 310.7,241.6 310.7,216 311.1,216 311.5,216 311.8,216 					"/>
					<polygon class="st1" points="314.3,232.8 313.1,232.8 313.1,207.2 313.5,207.2 313.9,207.2 314.3,207.2 					"/>
				</g>
				<rect x="291.2" y="251.9" class="st1" width="42.6" height="1.7"/>
				<rect x="297.9" y="239.9" class="st1" width="29.2" height="1.6"/>
				<rect x="303.8" y="232.8" class="st1" width="16.8" height="1.3"/>
				<rect x="301.4" y="243.5" class="st2" width="1.3" height="7.1"/>
				<rect x="304.9" y="243.5" class="st2" width="1.3" height="7.1"/>
				<rect x="308.4" y="243.5" class="st2" width="1.3" height="7.1"/>
				<rect x="311.9" y="243.5" class="st2" width="1.3" height="7.1"/>
				<rect x="315.4" y="243.5" class="st2" width="1.3" height="7.1"/>
				<rect x="318.9" y="243.5" class="st2" width="1.3" height="7.1"/>
				<rect x="322.4" y="243.5" class="st2" width="1.3" height="7.1"/>
				<rect x="295.8" y="258.7" class="st1" width="3.1" height="8.4"/>
				<rect x="301.9" y="258.7" class="st2" width="3.1" height="8.4"/>
				<rect x="307.9" y="258.7" class="st1" width="3.1" height="8.4"/>
				<rect x="314" y="258.7" class="st1" width="3.1" height="8.4"/>
				<rect x="320" y="258.7" class="st1" width="3.1" height="8.4"/>
				<rect x="326.1" y="258.7" class="st1" width="3.1" height="8.4"/>
				<rect x="295.8" y="271.8" class="st1" width="3.1" height="8.4"/>
				<rect x="301.9" y="271.8" class="st1" width="3.1" height="8.4"/>
				<rect x="307.9" y="271.8" class="st1" width="3.1" height="8.4"/>
				<rect x="314" y="271.8" class="st2" width="3.1" height="8.4"/>
				<rect x="320" y="271.8" class="st1" width="3.1" height="8.4"/>
				<rect x="326.1" y="271.8" class="st1" width="3.1" height="8.4"/>
				<rect x="295.8" y="284.9" class="st1" width="3.1" height="8.4"/>
				<rect x="301.9" y="284.9" class="st1" width="3.1" height="8.4"/>
				<rect x="307.9" y="284.9" class="st1" width="3.1" height="8.4"/>
				<rect x="314" y="284.9" class="st1" width="3.1" height="8.4"/>
				<rect x="320" y="284.9" class="st2" width="3.1" height="8.4"/>
				<rect x="326.1" y="284.9" class="st2" width="3.1" height="8.4"/>
				<rect x="295.8" y="298" class="st2" width="3.1" height="8.4"/>
				<rect x="301.9" y="298" class="st1" width="3.1" height="8.4"/>
				<rect x="307.9" y="298" class="st1" width="3.1" height="8.4"/>
				<rect x="314" y="298" class="st1" width="3.1" height="8.4"/>
				<rect x="320" y="298" class="st1" width="3.1" height="8.4"/>
				<rect x="326.1" y="298" class="st1" width="3.1" height="8.4"/>
				<rect x="295.8" y="311.1" class="st1" width="3.1" height="8.4"/>
				<rect x="301.9" y="311.1" class="st2" width="3.1" height="8.4"/>
				<rect x="307.9" y="311.1" class="st1" width="3.1" height="8.4"/>
				<rect x="314" y="311.1" class="st2" width="3.1" height="8.4"/>
				<rect x="320" y="311.1" class="st1" width="3.1" height="8.4"/>
				<rect x="326.1" y="311.1" class="st1" width="3.1" height="8.4"/>
				<rect x="295.8" y="324.2" class="st1" width="3.1" height="8.4"/>
				<rect x="301.9" y="324.2" class="st1" width="3.1" height="8.4"/>
				<rect x="307.9" y="324.2" class="st1" width="3.1" height="8.4"/>
				<rect x="314" y="324.2" class="st1" width="3.1" height="8.4"/>
				<rect x="320" y="324.2" class="st1" width="3.1" height="8.4"/>
				<rect x="326.1" y="324.2" class="st2" width="3.1" height="8.4"/>
				<rect x="295.8" y="337.3" class="st1" width="3.1" height="8.4"/>
				<rect x="301.9" y="337.3" class="st2" width="3.1" height="8.4"/>
				<rect x="307.9" y="337.3" class="st2" width="3.1" height="8.4"/>
				<rect x="314" y="337.3" class="st1" width="3.1" height="8.4"/>
				<rect x="320" y="337.3" class="st1" width="3.1" height="8.4"/>
				<rect x="326.1" y="337.3" class="st1" width="3.1" height="8.4"/>
				<rect x="295.8" y="350.4" class="st1" width="3.1" height="8.4"/>
				<rect x="301.9" y="350.4" class="st1" width="3.1" height="8.4"/>
				<rect x="307.9" y="350.4" class="st1" width="3.1" height="8.4"/>
				<rect x="314" y="350.4" class="st1" width="3.1" height="8.4"/>
				<rect x="320" y="350.4" class="st2" width="3.1" height="8.4"/>
				<rect x="326.1" y="350.4" class="st1" width="3.1" height="8.4"/>
				<rect x="295.8" y="363.5" class="st1" width="3.1" height="8.4"/>
				<rect x="301.9" y="363.5" class="st2" width="3.1" height="8.4"/>
				<rect x="307.9" y="363.5" class="st1" width="3.1" height="8.4"/>
				<rect x="314" y="363.5" class="st1" width="3.1" height="8.4"/>
				<rect x="320" y="363.5" class="st1" width="3.1" height="8.4"/>
				<rect x="326.1" y="363.5" class="st1" width="3.1" height="8.4"/>
				<rect x="295.8" y="376.6" class="st1" width="3.1" height="8.4"/>
				<rect x="301.9" y="376.6" class="st1" width="3.1" height="8.4"/>
				<rect x="307.9" y="376.6" class="st1" width="3.1" height="8.4"/>
				<rect x="314" y="376.6" class="st2" width="3.1" height="8.4"/>
				<rect x="320" y="376.6" class="st1" width="3.1" height="8.4"/>
				<rect x="326.1" y="376.6" class="st2" width="3.1" height="8.4"/>
				<rect x="295.8" y="389.7" class="st2" width="3.1" height="8.4"/>
				<rect x="301.9" y="389.7" class="st1" width="3.1" height="8.4"/>
				<rect x="307.9" y="389.7" class="st2" width="3.1" height="8.4"/>
				<rect x="314" y="389.7" class="st1" width="3.1" height="8.4"/>
				<rect x="320" y="389.7" class="st1" width="3.1" height="8.4"/>
				<rect x="326.1" y="389.7" class="st1" width="3.1" height="8.4"/>
			</g>
			<g>
				<rect x="174.9" y="258.4" class="st1" width="64.9" height="135.5"/>
				<rect x="173.1" y="256.1" class="st1" width="68.6" height="3.8"/>
				<rect x="177.1" y="251.2" class="st1" width="60.6" height="18.2"/>
				<rect x="181.8" y="243.7" class="st1" width="24" height="19.9"/>
				<polygon class="st1" points="195.6,249.3 181.8,249.3 181.8,238.9 191.7,238.9 				"/>
				<rect x="187.4" y="230.2" class="st1" width="1.3" height="23.3"/>
				<circle class="st1" cx="188" cy="229" r="1.2"/>
			</g>
			<polygon class="st1" points="777.7,404.2 706.6,404.2 697.7,205 777.7,221.6 			"/>
			<polygon class="st1" points="467.5,290.4 467.5,223.9 456.4,223.9 456.4,206 452.4,206 452.4,179.9 430.4,179.9 430.4,160.6 
				428.5,160.6 428.5,179.9 424.2,179.9 424.2,155.8 422.2,155.8 422.2,179.9 408.4,179.9 408.4,223.9 401.2,223.9 401.2,290.4 
				395.1,290.4 395.1,411.7 471.8,411.7 471.8,290.4 			"/>
		</g>
		<rect x="84.2" y="401.7" class="st1" width="849.4" height="20.2"/>
		<polygon class="st3" points="584.1,417 546.5,417 561.2,341.7 584.1,341.7 		"/>
		<g>
			<rect x="53.7" y="419.9" class="st3" width="891.8" height="31.9"/>
			<polygon class="st3" points="553.3,277.6 553.3,244.2 541.2,244.2 541.2,231.5 534.8,231.5 534.8,220.8 532.5,220.8 532.5,202.5 
				531.9,202.5 531.9,220.8 529.7,220.8 529.7,231.5 523.2,231.5 523.2,244.2 511.2,244.2 511.2,277.6 508.7,277.6 508.7,338.2 
				490.1,338.2 490.1,407.3 508.7,407.3 527.3,407.3 555.7,407.3 555.7,277.6 			"/>
			<polygon class="st3" points="622.7,315.9 564.3,315.9 564.3,317 566.9,317 566.9,415.8 620.1,415.8 620.1,317 622.7,317 			"/>
			<rect x="304.3" y="340.6" class="st3" width="51.8" height="82.3"/>
			<rect x="207.4" y="382.7" class="st3" width="89.1" height="40.2"/>
			<rect x="255.2" y="293" class="st3" width="19.6" height="98.6"/>
			<rect x="259.5" y="266.7" class="st3" width="1" height="53.6"/>
			<rect x="262.8" y="270.8" class="st3" width="1" height="53.6"/>
			<rect x="256.7" y="286.9" class="st3" width="12" height="13.2"/>
			<rect x="293" y="355.3" class="st3" width="34.1" height="67.6"/>
			<rect x="364.6" y="283.8" class="st3" width="63.9" height="139.1"/>
			<rect x="370.9" y="279" class="st3" width="51.4" height="23.2"/>
			<rect x="359.6" y="286.7" class="st3" width="73.8" height="1.6"/>
			<rect x="353" y="352.6" class="st3" width="30.1" height="70.3"/>
			<rect x="137.3" y="350" class="st3" width="34.6" height="72.9"/>
			<g>
				<rect x="148.5" y="330.1" class="st3" width="68.9" height="92.8"/>
				<rect x="144.4" y="326.6" class="st3" width="74.7" height="3.6"/>
				<rect x="151.5" y="316.9" class="st3" width="30.3" height="18.8"/>
				<rect x="191.7" y="316.9" class="st3" width="5.1" height="11.4"/>
				<rect x="201.8" y="316.9" class="st3" width="5.6" height="11.4"/>
			</g>
			<rect x="118.5" y="394.7" class="st3" width="36.1" height="28.2"/>
			<rect x="104.8" y="382.7" class="st3" width="17.1" height="40.2"/>
			<rect x="84.2" y="408.8" class="st3" width="29.2" height="14.1"/>
			<rect x="422.2" y="391.6" class="st3" width="359.8" height="31.3"/>
			<path class="st3" d="M753.3,305.1c-2.3,0-4.1,1.7-4.3,4l-5.1-0.2c0-0.5,0-1,0-1.5c0-6.3-1.1-12.4-3.2-18.2l4.2-1.6
				c0.7,1.5,2.2,2.6,4,2.6c2.4,0,4.3-1.9,4.3-4.3c0-2.4-1.9-4.3-4.3-4.3s-4.3,1.9-4.3,4.3c0,0.4,0.1,0.9,0.2,1.3l-4.2,1.6
				c-2.4-6.5-6.1-12.4-10.9-17.6l3.3-3.1c0.8,0.7,1.8,1.2,3,1.2c2.4,0,4.3-1.9,4.3-4.3c0-2.4-1.9-4.3-4.3-4.3s-4.3,1.9-4.3,4.3
				c0,1.1,0.4,2,1,2.8l-3.3,3.1c-0.3-0.4-0.7-0.7-1-1.1c-5-5-10.8-8.9-17.2-11.5l1.8-4.4c0.4,0.1,0.9,0.2,1.3,0.2
				c2.4,0,4.3-1.9,4.3-4.3c0-2.4-1.9-4.3-4.3-4.3s-4.3,1.9-4.3,4.3c0,1.8,1.1,3.3,2.6,4l-1.8,4.4c-5.7-2.3-11.8-3.6-18.1-3.8
				l0.2-6.1c0,0,0.1,0,0.1,0c2.4,0,4.3-1.9,4.3-4.3s-1.9-4.3-4.3-4.3s-4.3,1.9-4.3,4.3c0,2.2,1.6,4,3.7,4.3l-0.2,6.1
				c-0.5,0-1,0-1.5,0c-6,0-11.9,1-17.5,2.9l-1.7-4.9c1.6-0.6,2.7-2.2,2.7-4c0-2.4-1.9-4.3-4.3-4.3s-4.3,1.9-4.3,4.3s1.9,4.3,4.3,4.3
				c0.4,0,0.8-0.1,1.2-0.2l1.7,4.9c-6.7,2.4-13,6.2-18.3,11.2l-3.2-3.4c0.7-0.8,1.1-1.8,1.1-2.9c0-2.4-1.9-4.3-4.3-4.3
				s-4.3,1.9-4.3,4.3c0,2.4,1.9,4.3,4.3,4.3c1.1,0,2.1-0.4,2.8-1.1l3.2,3.4c-0.4,0.3-0.7,0.7-1.1,1c-4.5,4.5-8,9.6-10.6,15.1l-4-1.9
				c0.1-0.4,0.2-0.9,0.2-1.4c0-2.4-1.9-4.3-4.3-4.3c-2.4,0-4.3,1.9-4.3,4.3s1.9,4.3,4.3,4.3c1.7,0,3.2-1,3.9-2.5l4,1.8
				c-2.9,6.3-4.5,13.1-4.7,20.2l-5.2-0.2c-0.1-2.3-2-4.2-4.3-4.2c-2.4,0-4.3,1.9-4.3,4.3c0,2.4,1.9,4.3,4.3,4.3c2.3,0,4.1-1.7,4.3-4
				l5.2,0.2c0,0.5,0,1,0,1.5c0,6.3,1.1,12.4,3.2,18.2l-4.2,1.6c-0.7-1.5-2.2-2.6-4-2.6c-2.4,0-4.3,1.9-4.3,4.3
				c0,2.4,1.9,4.3,4.3,4.3s4.3-1.9,4.3-4.3c0-0.4-0.1-0.9-0.2-1.3l4.2-1.6c2.4,6.5,6.1,12.4,10.9,17.6l-3.3,3.1
				c-0.8-0.7-1.8-1.2-3-1.2c-2.4,0-4.3,1.9-4.3,4.3c0,2.4,1.9,4.3,4.3,4.3s4.3-1.9,4.3-4.3c0-1.1-0.4-2-1-2.8l3.3-3.1
				c0.3,0.4,0.7,0.7,1,1.1c3.4,3.4,7.1,6.2,11.2,8.6l-26.1,48.1h-4.7v1.4h-2.3v2.7h119.1v-2.7H748v-1.4h-4.7l-26.1-48.1
				c3.5-2,6.7-4.4,9.7-7.2l4.2,4.5c-0.9,0.8-1.5,2-1.5,3.3c0,2.4,1.9,4.3,4.3,4.3c2.4,0,4.3-1.9,4.3-4.3s-1.9-4.3-4.3-4.3
				c-0.9,0-1.8,0.3-2.5,0.8l-4.3-4.5c0.4-0.3,0.7-0.7,1.1-1c4.5-4.5,8-9.6,10.6-15.1l4.7,2.2c-0.1,0.3-0.1,0.7-0.1,1.1
				c0,2.4,1.9,4.3,4.3,4.3s4.3-1.9,4.3-4.3c0-2.4-1.9-4.3-4.3-4.3c-1.9,0-3.4,1.2-4,2.8l-4.6-2.1c2.9-6.3,4.5-13.1,4.7-20.2l5.1,0.2
				c0.1,2.3,2,4.2,4.3,4.2c2.4,0,4.3-1.9,4.3-4.3S755.7,305.1,753.3,305.1z M742.5,307.4c0,0.5,0,1,0,1.4l-14.9-0.5c0-0.3,0-0.6,0-1
				c0-4.4-0.8-8.6-2.2-12.5l14-5.2C741.5,295.3,742.5,301.3,742.5,307.4z M726.9,308.4l-33.3-1.1c0-0.2,0-0.4-0.1-0.6l31.2-11.5
				c1.4,3.8,2.1,8,2.1,12.3C726.9,307.7,726.9,308,726.9,308.4z M654.5,306.5l33.3,1.1c0,0.2,0,0.4,0.1,0.6l-31.2,11.5
				c-1.4-3.8-2.1-8-2.1-12.3C654.5,307.1,654.5,306.8,654.5,306.5z M693,305.6l24.3-22.8c3.2,3.4,5.7,7.4,7.3,11.8l-31.2,11.5
				C693.2,306,693.1,305.8,693,305.6z M692.6,305.3c-0.2-0.2-0.4-0.3-0.6-0.4l12.6-30.8c4.7,2,8.8,4.9,12.3,8.5L692.6,305.3z
				 M691.6,304.6c-0.2-0.1-0.4-0.1-0.5-0.1l1.1-33.3c4.3,0.2,8.3,1.1,12.1,2.6L691.6,304.6z M690.5,304.5c-0.2,0-0.4,0-0.6,0.1
				l-11.1-31.4c3.7-1.3,7.7-2,11.8-2c0.3,0,0.6,0,0.9,0L690.5,304.5z M689.5,304.8c-0.2,0.1-0.4,0.2-0.6,0.4l-22.8-24.3
				c3.5-3.3,7.7-5.8,12.3-7.5L689.5,304.8z M688.5,305.5c-0.1,0.2-0.3,0.3-0.4,0.5l-30.2-14c1.9-4.1,4.6-7.8,7.8-10.8L688.5,305.5z
				 M688,306.4c-0.1,0.2-0.1,0.4-0.2,0.7l-33.3-1.1c0.2-4.8,1.3-9.4,3.2-13.5L688,306.4z M688.1,308.6c0.1,0.2,0.2,0.3,0.3,0.5
				l-0.2,0.4l-24,22.5c-3.1-3.4-5.7-7.4-7.3-11.8L688.1,308.6z M687.4,310.8l-15.1,27.8c-2.9-1.7-5.6-3.8-7.9-6.3L687.4,310.8z
				 M689.1,309.8c0.1,0.1,0.2,0.1,0.3,0.2l-12.6,30.8c-1.2-0.5-2.4-1.1-3.5-1.7L689.1,309.8z M689.8,310.2c0.2,0.1,0.4,0.1,0.5,0.1
				l-1.1,33.3c-4.3-0.2-8.3-1.1-12.1-2.6L689.8,310.2z M690.7,343.6c-0.3,0-0.6,0-0.9,0l1.1-33.3c0.2,0,0.4,0,0.6-0.1l11.1,31.4
				C698.8,342.9,694.8,343.6,690.7,343.6z M691.9,310.1c0.2-0.1,0.3-0.2,0.5-0.3l15.9,29.3c-1.7,0.9-3.4,1.7-5.3,2.4L691.9,310.1z
				 M694.6,311.9l20.7,22.1c-1.9,1.8-4,3.3-6.2,4.6L694.6,311.9z M693.6,310.2l-0.6-1.1c0.1-0.1,0.1-0.2,0.2-0.3l30.2,14
				c-1.9,4.1-4.6,7.8-7.8,10.8L693.6,310.2z M693.4,308.4c0.1-0.2,0.1-0.4,0.2-0.7l33.3,1.1c-0.2,4.8-1.3,9.4-3.2,13.5L693.4,308.4z
				 M676.4,341.5l-5.7,13.8c-1.7-0.7-3.4-1.5-5.1-2.4l7.1-13.1C674,340.4,675.2,341,676.4,341.5z M676.9,341.7
				c3.8,1.6,8,2.5,12.4,2.6l-0.5,14.9c-6.1-0.2-12-1.5-17.6-3.7L676.9,341.7z M689.7,344.3c0.3,0,0.6,0,1,0c4.2,0,8.3-0.7,12-2
				l5,14.1c-5.4,1.9-11.1,2.8-17,2.8c-0.5,0-1,0-1.4,0L689.7,344.3z M703.2,342.2c1.9-0.7,3.7-1.5,5.4-2.4l7.1,13.1
				c-2.4,1.3-4.9,2.5-7.5,3.4L703.2,342.2z M739.3,289.3l-14,5.2c-1.7-4.5-4.3-8.6-7.5-12.1l10.9-10.2
				C733.4,277.2,736.9,283,739.3,289.3z M727.4,270.8c0.3,0.3,0.7,0.7,1,1L717.5,282c-3.5-3.7-7.8-6.7-12.5-8.7l5.7-13.8
				C716.8,262.1,722.5,265.9,727.4,270.8z M710.2,259.3l-5.7,13.8c-3.8-1.6-8-2.5-12.4-2.6l0.5-14.9
				C698.7,255.8,704.6,257.1,710.2,259.3z M690.7,255.6c0.5,0,1,0,1.4,0l-0.5,14.9c-0.3,0-0.6,0-1,0c-4.2,0-8.3,0.7-12,2l-5-14.1
				C679.1,256.5,684.8,255.6,690.7,255.6z M673.2,258.6l5,14.1c-4.7,1.7-9,4.3-12.6,7.6l-10.2-10.9
				C660.6,264.6,666.7,260.9,673.2,258.6z M654,270.8c0.3-0.3,0.7-0.7,1-1l10.2,10.9c-3.3,3.1-6,6.9-8,11.1l-13.6-6.3
				C646.2,280.1,649.7,275.1,654,270.8z M643.5,285.9l13.6,6.3c-1.9,4.2-3.1,8.9-3.3,13.8l-14.9-0.5
				C639.1,298.6,640.7,292,643.5,285.9z M638.8,307.4c0-0.5,0-1,0-1.4l14.9,0.5c0,0.3,0,0.6,0,1c0,4.4,0.8,8.6,2.2,12.5l-14,5.2
				C639.9,319.5,638.8,313.5,638.8,307.4z M642.1,325.6l14-5.2c1.7,4.5,4.3,8.6,7.5,12.1l-10.9,10.2
				C648,337.7,644.4,331.8,642.1,325.6z M654,344.1c-0.3-0.3-0.7-0.7-1-1l10.9-10.2c2.4,2.5,5.1,4.7,8.1,6.4l-7.1,13.2
				C660.9,350.1,657.3,347.4,654,344.1z M742.2,401.7h-103l25.8-47.6c1.7,0.9,3.4,1.8,5.2,2.5l-1.8,4.4c-0.4-0.1-0.9-0.2-1.3-0.2
				c-2.4,0-4.3,1.9-4.3,4.3s1.9,4.3,4.3,4.3s4.3-1.9,4.3-4.3c0-1.8-1.1-3.3-2.6-4l1.8-4.4c5.7,2.3,11.8,3.6,18.1,3.8l-0.1,4.5
				c-2.3,0.1-4.2,2-4.2,4.3c0,2.4,1.9,4.3,4.3,4.3s4.3-1.9,4.3-4.3c0-2.3-1.7-4.1-3.9-4.3l0.1-4.5c0.5,0,1,0,1.5,0
				c6,0,11.9-1,17.5-2.9l1.6,4.4c-1.5,0.7-2.5,2.2-2.5,3.9c0,2.4,1.9,4.3,4.3,4.3c2.4,0,4.3-1.9,4.3-4.3c0-2.4-1.9-4.3-4.3-4.3
				c-0.5,0-1,0.1-1.4,0.2l-1.5-4.4c2.7-1,5.3-2.1,7.7-3.5L742.2,401.7z M716.5,352.4l-7.1-13.2c2.3-1.3,4.4-2.9,6.4-4.7l10.2,10.9
				C723.1,348.1,719.9,350.4,716.5,352.4z M727.4,344.1c-0.3,0.3-0.7,0.7-1,1l-10.2-10.9c3.3-3.1,6-6.9,8-11.1l13.6,6.3
				C735.2,334.8,731.7,339.7,727.4,344.1z M737.9,328.9l-13.6-6.3c1.9-4.2,3.1-8.9,3.3-13.8l14.9,0.5
				C742.3,316.2,740.7,322.8,737.9,328.9z"/>
			<rect x="763.8" y="341.5" class="st3" width="55.6" height="81.4"/>
			<rect x="811.2" y="373.1" class="st3" width="55.6" height="49.3"/>
			<rect x="595.7" y="365.9" class="st3" width="31.2" height="41.4"/>
			<rect x="791.6" y="264" class="st3" width="39.3" height="158.8"/>
			<polygon class="st3" points="895.6,422.9 843.7,422.9 843.7,330.1 883,330.1 			"/>
			<rect x="872.9" y="401.7" class="st3" width="45.4" height="21.2"/>
			<rect x="820.7" y="230.9" class="st3" width="1.4" height="43.2"/>
			<rect x="825.3" y="240.1" class="st3" width="1.4" height="43.2"/>
			<rect x="816.5" y="246.1" class="st3" width="1.4" height="43.2"/>
			<rect x="845.8" y="322.6" class="st3" width="18.6" height="14.6"/>
			<rect x="847.8" y="317.4" class="st3" width="14.5" height="8.2"/>
			<rect x="871.7" y="326.9" class="st3" width="3.6" height="5.9"/>
			<rect x="876.5" y="321.5" class="st3" width="5.1" height="11.3"/>
		</g>
		<g>
			<g>
				<rect x="595.6" y="299.9" class="st4" width="47.1" height="151.9"/>
				<rect x="592" y="300.8" class="st4" width="54.2" height="1.5"/>
				<rect x="593.5" y="322.1" class="st4" width="51.2" height="1.5"/>
				<rect x="593.5" y="342.8" class="st4" width="51.2" height="1.5"/>
				<rect x="593.5" y="363.4" class="st4" width="51.2" height="1.5"/>
				<rect x="593.5" y="384.1" class="st4" width="51.2" height="1.5"/>
				<rect x="593.5" y="404.8" class="st4" width="51.2" height="1.5"/>
				<rect x="593.5" y="425.4" class="st4" width="51.2" height="1.5"/>
				<rect x="590.2" y="296.6" class="st4" width="57.7" height="4.2"/>
				<rect x="599.8" y="307.3" class="st5" width="4.9" height="12.1"/>
				<rect x="610.7" y="307.3" class="st4" width="4.9" height="12.1"/>
				<rect x="621.7" y="307.3" class="st4" width="4.9" height="12.1"/>
				<rect x="632.6" y="307.3" class="st4" width="4.9" height="12.1"/>
				<rect x="599.8" y="327.1" class="st4" width="4.9" height="12.1"/>
				<rect x="610.7" y="327.1" class="st5" width="4.9" height="12.1"/>
				<rect x="621.7" y="327.1" class="st4" width="4.9" height="12.1"/>
				<rect x="632.6" y="327.1" class="st4" width="4.9" height="12.1"/>
				<rect x="599.8" y="347.8" class="st4" width="4.9" height="12.1"/>
				<rect x="610.7" y="347.8" class="st4" width="4.9" height="12.1"/>
				<rect x="621.7" y="347.8" class="st4" width="4.9" height="12.1"/>
				<rect x="632.6" y="347.8" class="st5" width="4.9" height="12.1"/>
				<rect x="599.8" y="368.5" class="st4" width="4.9" height="12.1"/>
				<rect x="610.7" y="368.5" class="st5" width="4.9" height="12.1"/>
				<rect x="621.7" y="368.5" class="st5" width="4.9" height="12.1"/>
				<rect x="632.6" y="368.5" class="st4" width="4.9" height="12.1"/>
				<rect x="599.8" y="389.1" class="st5" width="4.9" height="12.1"/>
				<rect x="610.7" y="389.1" class="st4" width="4.9" height="12.1"/>
				<rect x="621.7" y="389.1" class="st4" width="4.9" height="12.1"/>
				<rect x="632.6" y="389.1" class="st4" width="4.9" height="12.1"/>
				<rect x="599.8" y="409.8" class="st4" width="4.9" height="12.1"/>
				<rect x="610.7" y="409.8" class="st4" width="4.9" height="12.1"/>
				<rect x="621.7" y="409.8" class="st5" width="4.9" height="12.1"/>
				<rect x="632.6" y="409.8" class="st4" width="4.9" height="12.1"/>
				<rect x="599.8" y="430.4" class="st4" width="4.9" height="12.1"/>
				<rect x="610.7" y="430.4" class="st5" width="4.9" height="12.1"/>
				<rect x="621.7" y="430.4" class="st4" width="4.9" height="12.1"/>
				<rect x="632.6" y="430.4" class="st5" width="4.9" height="12.1"/>
				<rect x="598.5" y="290.8" class="st4" width="16" height="7.9"/>
				<rect x="597.4" y="290.6" class="st4" width="18.2" height="1.3"/>
			</g>
			<g>
				<polygon class="st4" points="528,451.8 465.2,451.8 465.2,307.5 528,292.1 				"/>
				<rect x="462.5" y="304.9" class="st4" width="5.5" height="146.8"/>
				<rect x="478.2" y="300.8" class="st4" width="5.5" height="151"/>
				<rect x="493.9" y="296.5" class="st4" width="5.5" height="155.3"/>
				<rect x="509.6" y="293" class="st4" width="5.5" height="158.8"/>
				<rect x="525.3" y="289.2" class="st4" width="5.5" height="162.5"/>
				<rect x="469.4" y="317.2" class="st5" width="7.3" height="11.2"/>
				<rect x="485.1" y="317.2" class="st5" width="7.3" height="11.2"/>
				<rect x="500.8" y="317.2" class="st4" width="7.3" height="11.2"/>
				<rect x="516.5" y="317.2" class="st5" width="7.3" height="11.2"/>
				<rect x="469.4" y="336.7" class="st4" width="7.3" height="11.2"/>
				<rect x="485.1" y="336.7" class="st4" width="7.3" height="11.2"/>
				<rect x="500.8" y="336.7" class="st5" width="7.3" height="11.2"/>
				<rect x="516.5" y="336.7" class="st5" width="7.3" height="11.2"/>
				<rect x="469.4" y="356.1" class="st5" width="7.3" height="11.2"/>
				<rect x="485.1" y="356.1" class="st5" width="7.3" height="11.2"/>
				<rect x="500.8" y="356.1" class="st5" width="7.3" height="11.2"/>
				<rect x="516.5" y="356.1" class="st4" width="7.3" height="11.2"/>
				<rect x="469.4" y="375.5" class="st5" width="7.3" height="11.2"/>
				<rect x="485.1" y="375.5" class="st4" width="7.3" height="11.2"/>
				<rect x="500.8" y="375.5" class="st5" width="7.3" height="11.2"/>
				<rect x="516.5" y="375.5" class="st5" width="7.3" height="11.2"/>
				<rect x="469.4" y="394.9" class="st5" width="7.3" height="11.2"/>
				<rect x="485.1" y="394.9" class="st5" width="7.3" height="11.2"/>
				<rect x="500.8" y="394.9" class="st4" width="7.3" height="11.2"/>
				<rect x="516.5" y="394.9" class="st5" width="7.3" height="11.2"/>
				<rect x="469.4" y="414.3" class="st4" width="7.3" height="11.2"/>
				<rect x="485.1" y="414.3" class="st4" width="7.3" height="11.2"/>
				<rect x="500.8" y="414.3" class="st5" width="7.3" height="11.2"/>
				<rect x="516.5" y="414.3" class="st5" width="7.3" height="11.2"/>
				<rect x="469.4" y="433.7" class="st5" width="7.3" height="11.2"/>
				<rect x="485.1" y="433.7" class="st4" width="7.3" height="11.2"/>
				<rect x="500.8" y="433.7" class="st5" width="7.3" height="11.2"/>
				<rect x="516.5" y="433.7" class="st4" width="7.3" height="11.2"/>
			</g>
			<polygon class="st4" points="286.2,314.4 286.2,315.9 284.7,315.9 284.7,320.1 311,320.1 311,451.8 267.9,451.8 267.9,327 
				267.9,320.1 267.9,315.9 266.3,315.9 266.3,314.4 			"/>
			<rect x="359.6" y="374.2" class="st4" width="36.9" height="77.6"/>
			<g>
				<rect x="198.7" y="356.4" class="st4" width="30" height="95.4"/>
				<rect x="222.8" y="376.2" class="st4" width="32.7" height="75.5"/>
				<rect x="209.5" y="352.5" class="st4" width="13.3" height="11.4"/>
				<rect x="225" y="375" class="st4" width="34.9" height="2.8"/>
			</g>
			<rect x="252" y="408.6" class="st4" width="36.7" height="43.1"/>
			<rect x="133.5" y="373.5" class="st4" width="29.8" height="78.2"/>
			<rect x="107.6" y="412.5" class="st4" width="39.2" height="39.2"/>
			<rect x="64.4" y="406.1" class="st4" width="24.5" height="45.6"/>
			<rect x="84.2" y="437.5" class="st4" width="58" height="14.3"/>
			<rect x="42.2" y="432.8" class="st4" width="29.7" height="18.9"/>
			<rect x="163.3" y="422.9" class="st4" width="46.2" height="28.9"/>
			<rect x="298.9" y="439.3" class="st4" width="72" height="12.4"/>
			<rect x="426.5" y="439.3" class="st4" width="72" height="12.4"/>
			<polygon class="st4" points="368.1,402.8 340.7,402.8 329.1,445.5 368.1,445.5 			"/>
			<rect x="380.7" y="340.7" class="st4" width="0.8" height="47.4"/>
			<rect x="384.5" y="356.7" class="st4" width="1" height="28"/>
			<rect x="379.1" y="361.6" class="st4" width="13.8" height="13.8"/>
			<rect x="376.7" y="360.6" class="st4" width="18.3" height="1.2"/>
			<rect x="389.8" y="411.7" class="st4" width="44.7" height="40"/>
			<rect x="426" y="367.7" class="st4" width="28.7" height="77.2"/>
			<rect x="538.2" y="382.2" class="st4" width="45.9" height="69.6"/>
			<rect x="523.8" y="426.1" class="st4" width="52.3" height="25.6"/>
			<rect x="581.6" y="442.6" class="st4" width="34" height="9.2"/>
			<rect x="634" y="426.1" class="st4" width="55.3" height="25.6"/>
			<g>
				<rect x="656.1" y="359" class="st4" width="68.9" height="92.8"/>
				<rect x="654.3" y="355.4" class="st4" width="74.7" height="3.6"/>
				<rect x="691.6" y="345.8" class="st4" width="30.3" height="18.8"/>
				<rect x="676.7" y="345.8" class="st4" width="5.1" height="11.4"/>
				<rect x="666" y="345.8" class="st4" width="5.6" height="11.4"/>
			</g>
			<g>
				<rect x="772.3" y="316.3" class="st4" width="54.5" height="135.5"/>
				<rect x="770.7" y="314" class="st4" width="57.6" height="3.8"/>
				<rect x="774.1" y="309.1" class="st4" width="50.8" height="18.2"/>
				<rect x="800.9" y="301.6" class="st4" width="20.1" height="19.9"/>
				<polygon class="st4" points="809.4,307.2 821.1,307.2 821.1,296.8 812.7,296.8 				"/>
				<rect x="815.2" y="288.1" class="st4" width="1.1" height="23.3"/>
				<ellipse class="st4" cx="815.8" cy="286.9" rx="1" ry="1.2"/>
			</g>
			<rect x="819.3" y="395.8" class="st4" width="24.4" height="55.9"/>
			<rect x="749.8" y="368.6" class="st4" width="27.8" height="83.2"/>
			<polygon class="st4" points="763.8,451.8 724.6,451.8 724.6,407.3 757.7,421.9 			"/>
			<rect x="835.7" y="427.6" class="st4" width="59.9" height="24.2"/>
			<rect x="873.5" y="355.3" class="st4" width="34.8" height="96.5"/>
			<rect x="900.1" y="433.7" class="st4" width="57.6" height="18"/>
			<rect x="871.7" y="353.5" class="st4" width="38.1" height="3.2"/>
			<rect x="902.8" y="339.9" class="st4" width="0.8" height="19.4"/>
			<rect x="897.7" y="342.4" class="st4" width="0.8" height="15.6"/>
			<polygon class="st4" points="921.1,391.6 905.6,391.6 905.6,435.8 927.7,435.8 			"/>
		</g>
	</g>
	<g>
		<g class="st6">
			<rect x="201.8" y="361.2" class="st7" width="2.3" height="2.3"/>
			<rect x="206.4" y="361.2" class="st7" width="2.3" height="2.3"/>
			<rect x="201.8" y="366.5" class="st7" width="2.3" height="2.3"/>
			<rect x="206.4" y="366.5" class="st7" width="2.3" height="2.3"/>
			<rect x="201.8" y="371.7" class="st7" width="2.3" height="2.3"/>
			<rect x="211.5" y="361.2" class="st7" width="2.3" height="2.3"/>
		</g>
		<rect x="368.1" y="293" class="st8" width="1.5" height="8.6"/>
		<rect x="373.4" y="293" class="st8" width="1.5" height="8.6"/>
		<rect x="378.7" y="293" class="st8" width="1.5" height="8.6"/>
		<rect x="384.1" y="293" class="st8" width="1.5" height="8.6"/>
		<rect x="389.4" y="293" class="st8" width="1.5" height="8.6"/>
		<rect x="394.7" y="293" class="st8" width="1.5" height="8.6"/>
		<rect x="400.1" y="293" class="st8" width="1.5" height="8.6"/>
		<rect x="405.4" y="293" class="st8" width="1.5" height="8.6"/>
		<rect x="410.8" y="293" class="st8" width="1.5" height="8.6"/>
		<rect x="416.1" y="293" class="st8" width="1.5" height="8.6"/>
		<rect x="421.4" y="293" class="st8" width="1.5" height="8.6"/>
		<rect x="368.1" y="304.9" class="st8" width="1.5" height="8.6"/>
		<rect x="373.4" y="304.9" class="st8" width="1.5" height="8.6"/>
		<rect x="378.7" y="304.9" class="st8" width="1.5" height="8.6"/>
		<rect x="384.1" y="304.9" class="st8" width="1.5" height="8.6"/>
		<rect x="389.4" y="304.9" class="st8" width="1.5" height="8.6"/>
		<rect x="394.7" y="304.9" class="st8" width="1.5" height="8.6"/>
		<rect x="400.1" y="304.9" class="st8" width="1.5" height="8.6"/>
		<rect x="405.4" y="304.9" class="st8" width="1.5" height="8.6"/>
		<rect x="410.8" y="304.9" class="st8" width="1.5" height="8.6"/>
		<rect x="416.1" y="304.9" class="st8" width="1.5" height="8.6"/>
		<rect x="421.4" y="304.9" class="st8" width="1.5" height="8.6"/>
		<rect x="368.1" y="316.8" class="st8" width="1.5" height="8.6"/>
		<rect x="373.4" y="316.8" class="st8" width="1.5" height="8.6"/>
		<rect x="378.7" y="316.8" class="st8" width="1.5" height="8.6"/>
		<rect x="384.1" y="316.8" class="st8" width="1.5" height="8.6"/>
		<rect x="389.4" y="316.8" class="st8" width="1.5" height="8.6"/>
		<rect x="394.7" y="316.8" class="st8" width="1.5" height="8.6"/>
		<rect x="400.1" y="316.8" class="st8" width="1.5" height="8.6"/>
		<rect x="405.4" y="316.8" class="st8" width="1.5" height="8.6"/>
		<rect x="410.8" y="316.8" class="st8" width="1.5" height="8.6"/>
		<rect x="416.1" y="316.8" class="st8" width="1.5" height="8.6"/>
		<rect x="421.4" y="316.8" class="st8" width="1.5" height="8.6"/>
		<rect x="384.1" y="328.8" class="st8" width="1.5" height="8.6"/>
		<rect x="389.4" y="328.8" class="st8" width="1.5" height="8.6"/>
		<rect x="394.7" y="328.8" class="st8" width="1.5" height="8.6"/>
		<rect x="400.1" y="328.8" class="st8" width="1.5" height="8.6"/>
		<rect x="405.4" y="328.8" class="st8" width="1.5" height="8.6"/>
		<rect x="410.8" y="328.8" class="st8" width="1.5" height="8.6"/>
		<rect x="416.1" y="328.8" class="st8" width="1.5" height="8.6"/>
		<rect x="421.4" y="328.8" class="st8" width="1.5" height="8.6"/>
		<rect x="389.4" y="341.4" class="st8" width="1.5" height="8.6"/>
		<rect x="394.7" y="341.4" class="st8" width="1.5" height="8.6"/>
		<rect x="400.1" y="341.4" class="st8" width="1.5" height="8.6"/>
		<rect x="405.4" y="341.4" class="st8" width="1.5" height="8.6"/>
		<rect x="410.8" y="341.4" class="st8" width="1.5" height="8.6"/>
		<rect x="416.1" y="341.4" class="st8" width="1.5" height="8.6"/>
		<rect x="421.4" y="341.4" class="st8" width="1.5" height="8.6"/>
		<rect x="471.3" y="314.3" class="st9" width="3.7" height="9.3"/>
		<rect x="471.3" y="332" class="st9" width="3.7" height="9.3"/>
		<rect x="471.3" y="349.8" class="st9" width="3.7" height="9.3"/>
		<rect x="471.3" y="367.5" class="st9" width="3.7" height="9.3"/>
		<rect x="471.3" y="384.3" class="st9" width="3.7" height="9.3"/>
		<rect x="471.3" y="402" class="st9" width="3.7" height="9.3"/>
		<rect x="487" y="314.3" class="st9" width="3.7" height="9.3"/>
		<rect x="487" y="332" class="st9" width="3.7" height="9.3"/>
		<rect x="487" y="349.8" class="st9" width="3.7" height="9.3"/>
		<rect x="487" y="367.5" class="st9" width="3.7" height="9.3"/>
		<rect x="487" y="384.3" class="st9" width="3.7" height="9.3"/>
		<rect x="487" y="402" class="st9" width="3.7" height="9.3"/>
		<rect x="502.6" y="314.3" class="st9" width="3.7" height="9.3"/>
		<rect x="502.6" y="332" class="st9" width="3.7" height="9.3"/>
		<rect x="502.6" y="349.8" class="st9" width="3.7" height="9.3"/>
		<rect x="502.6" y="367.5" class="st9" width="3.7" height="9.3"/>
		<rect x="502.6" y="384.3" class="st9" width="3.7" height="9.3"/>
		<rect x="502.6" y="402" class="st9" width="3.7" height="9.3"/>
		<rect x="518.3" y="314.3" class="st9" width="3.7" height="9.3"/>
		<rect x="518.3" y="332" class="st9" width="3.7" height="9.3"/>
		<rect x="518.3" y="349.8" class="st9" width="3.7" height="9.3"/>
		<rect x="518.3" y="367.5" class="st9" width="3.7" height="9.3"/>
		<rect x="518.3" y="384.3" class="st9" width="3.7" height="9.3"/>
		<rect x="518.3" y="402" class="st9" width="3.7" height="9.3"/>
		<rect x="412.3" y="184.8" class="st8" width="3" height="8.1"/>
		<rect x="419.8" y="184.8" class="st8" width="3" height="8.1"/>
		<rect x="427.3" y="184.8" class="st8" width="3" height="8.1"/>
		<rect x="434.9" y="184.8" class="st8" width="3" height="8.1"/>
		<rect x="412.3" y="198.3" class="st8" width="3" height="8.1"/>
		<rect x="419.8" y="198.3" class="st8" width="3" height="8.1"/>
		<rect x="427.3" y="198.3" class="st8" width="3" height="8.1"/>
		<rect x="434.9" y="198.3" class="st8" width="3" height="8.1"/>
		<rect x="412.3" y="211.9" class="st8" width="3" height="8.1"/>
		<rect x="419.8" y="211.9" class="st8" width="3" height="8.1"/>
		<rect x="443.4" y="184.8" class="st8" width="3" height="8.1"/>
		<rect x="209.5" y="267.1" class="st10" width="1.9" height="7.4"/>
		<rect x="216.4" y="267.1" class="st10" width="1.9" height="7.4"/>
		<rect x="224.3" y="267.1" class="st10" width="1.9" height="7.4"/>
		<rect x="231.2" y="267.1" class="st10" width="1.9" height="7.4"/>
		<rect x="194.3" y="267.1" class="st10" width="1.9" height="7.4"/>
		<rect x="201.2" y="267.1" class="st10" width="1.9" height="7.4"/>
		<rect x="209.5" y="280" class="st10" width="1.9" height="7.4"/>
		<rect x="216.4" y="280" class="st10" width="1.9" height="7.4"/>
		<rect x="224.3" y="280" class="st10" width="1.9" height="7.4"/>
		<rect x="231.2" y="280" class="st10" width="1.9" height="7.4"/>
		<rect x="194.3" y="280" class="st10" width="1.9" height="7.4"/>
		<rect x="201.2" y="280" class="st10" width="1.9" height="7.4"/>
		<rect x="209.5" y="293" class="st10" width="1.9" height="7.4"/>
		<rect x="216.4" y="293" class="st10" width="1.9" height="7.4"/>
		<rect x="224.3" y="293" class="st10" width="1.9" height="7.4"/>
		<rect x="231.2" y="293" class="st10" width="1.9" height="7.4"/>
		<rect x="194.3" y="293" class="st10" width="1.9" height="7.4"/>
		<rect x="201.2" y="293" class="st10" width="1.9" height="7.4"/>
		<rect x="570.9" y="324.2" class="st8" width="3" height="11.5"/>
		<rect x="580.1" y="324.2" class="st8" width="3" height="11.5"/>
		<rect x="588.7" y="324.2" class="st8" width="3" height="11.5"/>
		<rect x="777.7" y="326.6" class="st9" width="2.3" height="6.5"/>
		<rect x="784.8" y="326.6" class="st9" width="2.3" height="6.5"/>
		<rect x="777.7" y="326.6" class="st9" width="2.3" height="6.5"/>
		<rect x="784.8" y="326.6" class="st9" width="2.3" height="6.5"/>
		<rect x="791.6" y="326.6" class="st9" width="2.3" height="6.5"/>
		<rect x="798.7" y="326.6" class="st9" width="2.3" height="6.5"/>
		<rect x="777.7" y="338.2" class="st9" width="2.3" height="6.5"/>
		<rect x="784.8" y="338.2" class="st9" width="2.3" height="6.5"/>
		<rect x="777.7" y="338.2" class="st9" width="2.3" height="6.5"/>
		<rect x="784.8" y="338.2" class="st9" width="2.3" height="6.5"/>
		<rect x="791.6" y="338.2" class="st9" width="2.3" height="6.5"/>
		<rect x="798.7" y="338.2" class="st9" width="2.3" height="6.5"/>
		<rect x="777.7" y="350.6" class="st9" width="2.3" height="6.5"/>
		<rect x="784.8" y="350.6" class="st9" width="2.3" height="6.5"/>
		<rect x="777.7" y="350.6" class="st9" width="2.3" height="6.5"/>
		<rect x="784.8" y="350.6" class="st9" width="2.3" height="6.5"/>
		<rect x="791.6" y="350.6" class="st9" width="2.3" height="6.5"/>
		<rect x="798.7" y="350.6" class="st9" width="2.3" height="6.5"/>
		<rect x="806.5" y="326.6" class="st9" width="2.3" height="6.5"/>
		<rect x="806.5" y="338.2" class="st9" width="2.3" height="6.5"/>
		<rect x="813.6" y="326.6" class="st9" width="2.3" height="6.5"/>
		<rect x="599.8" y="307.3" class="st9" width="2.4" height="10.1"/>
		<rect x="612" y="307.3" class="st9" width="2.4" height="10.1"/>
		<rect x="624.1" y="307.3" class="st9" width="2.4" height="10.1"/>
		<rect x="636.3" y="307.3" class="st9" width="2.4" height="10.1"/>
		<rect x="599.8" y="328.1" class="st9" width="2.4" height="10.1"/>
		<rect x="612" y="328.1" class="st9" width="2.4" height="10.1"/>
		<rect x="624.1" y="328.1" class="st9" width="2.4" height="10.1"/>
		<rect x="636.3" y="328.1" class="st9" width="2.4" height="10.1"/>
		<rect x="599.8" y="349.5" class="st9" width="2.4" height="10.1"/>
		<rect x="612" y="349.5" class="st9" width="2.4" height="10.1"/>
		<rect x="624.1" y="349.5" class="st9" width="2.4" height="10.1"/>
		<rect x="636.3" y="349.5" class="st9" width="2.4" height="10.1"/>
		<rect x="599.8" y="370.9" class="st9" width="2.4" height="10.1"/>
		<rect x="612" y="370.9" class="st9" width="2.4" height="10.1"/>
		<rect x="624.1" y="370.9" class="st9" width="2.4" height="10.1"/>
		<rect x="636.3" y="370.9" class="st9" width="2.4" height="10.1"/>
		<rect x="599.8" y="390.3" class="st9" width="2.4" height="10.1"/>
		<rect x="612" y="390.3" class="st9" width="2.4" height="10.1"/>
		<rect x="624.1" y="390.3" class="st9" width="2.4" height="10.1"/>
		<rect x="599.8" y="411.9" class="st9" width="2.4" height="10.1"/>
		<rect x="612" y="411.9" class="st9" width="2.4" height="10.1"/>
		<rect x="624.1" y="411.9" class="st9" width="2.4" height="10.1"/>
		<rect x="636.3" y="390.3" class="st9" width="2.4" height="10.1"/>
		<rect x="876.5" y="360.8" class="st9" width="2.5" height="5.8"/>
		<rect x="876.5" y="370.2" class="st9" width="2.5" height="5.8"/>
		<rect x="883" y="360.8" class="st9" width="2.5" height="5.8"/>
	</g>
</g>
</svg>
