<?xml version="1.0" encoding="utf-8"?>
<!-- Generator: Adobe Illustrator 16.0.3, SVG Export Plug-In . SVG Version: 6.00 Build 0)  -->
<!DOCTYPE svg PUBLIC "-//W3C//DTD SVG 1.1//EN" "http://www.w3.org/Graphics/SVG/1.1/DTD/svg11.dtd">
<svg version="1.1" id="Layer_1" xmlns="http://www.w3.org/2000/svg" xmlns:xlink="http://www.w3.org/1999/xlink" x="0px" y="0px"
	 width="612px" height="792px" viewBox="0 0 612 792" enable-background="new 0 0 612 792" xml:space="preserve">
<g>
	<g>
		<path fill-rule="evenodd" clip-rule="evenodd" fill="#FFFFFF" d="M612.48,792.481c-204.15,0-408.06,0-611.986,0
			c0-263.977,0-527.954,0-791.966c203.952,0,407.917,0,611.986,0C612.48,264.48,612.48,528.481,612.48,792.481z M235.866,103.005
			c-0.396-1.259-0.748-2.302-1.052-3.358c-2.11-7.353-5.261-14.244-9.468-20.615c-3.872-5.864-8.622-10.893-14.817-14.404
			c-6.371-3.611-13.185-4.643-20.367-3.519c-3.338,0.522-6.527,1.559-9.56,3.034c-5.024,2.444-9.441,5.722-12.954,10.083
			c-4.147,5.148-7.205,10.961-9.524,17.115c-1.494,3.965-2.402,8.123-2.177,12.439c0.049,0.954-0.038,1.917-0.103,2.874
			c-0.025,0.365-0.164,0.722-0.276,1.191c-0.844-0.235-1.525-0.423-2.205-0.616c-1.69-0.479-3.367-1.011-5.071-1.429
			c-3.406-0.834-6.834-0.94-10.148,0.334c-5.522,2.123-9.321,6.02-11.471,11.536c-1.173,3.01-1.754,6.13-1.91,9.348
			c-0.124,2.554-0.297,5.105-0.483,7.655c-0.058,0.793-0.22,1.581-0.352,2.368c-0.257,1.528-1.147,2.369-2.695,2.619
			c-1.734,0.28-3.446,0.698-5.178,0.995c-1.27,0.217-2.246,0.87-2.924,1.905c-0.521,0.794-1.007,1.654-1.286,2.554
			c-1.005,3.244-1.042,6.574-0.825,9.917c1.185,0.581,2.323,0.333,3.416,0.333c63.34,0.014,126.68,0.013,190.02,0.013
			c0.639,0,1.28,0.019,1.918-0.01c0.459-0.021,0.916-0.108,1.412-0.171c0.088-0.419,0.215-0.723,0.207-1.023
			c-0.074-3.434-0.148-6.868-0.275-10.3c-0.037-0.953-0.201-1.911-0.398-2.847c-1.209-5.725-4.795-9.265-10.31-10.847
			c-1.983-0.569-4.077-0.794-6.137-1.048c-3.935-0.485-3.979-0.511-4.366-4.219c-0.474-4.517-1.857-8.726-4.371-12.553
			c-1.985-3.024-4.315-5.724-6.928-8.229c-3.106-2.98-6.495-5.431-10.651-6.688c-1.298-0.393-2.609-0.756-3.934-1.042
			c-4.659-1.005-9.292-1.209-13.997-0.03c-3.781,0.948-6.958,2.729-9.591,5.558C236.724,102.261,236.363,102.549,235.866,103.005z
			 M398.24,270.761c0.828,0,1.701,0,2.576,0c6.396,0,12.793,0.01,19.191-0.003c5.758-0.012,11.516-0.048,17.273-0.077
			c6.318-0.032,12.635-0.064,18.953-0.104c9.834-0.061,19.668-0.138,29.502-0.189c9.277-0.048,18.555-0.079,27.832-0.104
			c12.316-0.034,24.633-0.055,36.951-0.082c0.879-0.002,1.76,0.013,2.639-0.004c1.199-0.023,2.4-0.036,3.594-0.122
			c0.453-0.032,1.002-0.132,1.314-0.414c1.316-1.182,2.211-2.543,1.365-4.426c-0.162-0.36-0.232-0.763-0.332-1.149
			c-0.256-0.996-0.879-1.699-1.779-2.145c-0.641-0.318-1.301-0.616-1.98-0.836c-2.148-0.694-4.346-1.055-6.613-0.916
			c-0.691,0.042-1.387,0.007-2.348,0.007c0.414-0.763,0.713-1.295,0.994-1.837c1.004-1.934,1.771-3.905,1.488-6.17
			c-0.656-5.25-6.158-10.75-13.584-8.269c-0.818,0.273-1.633,0.551-2.557,0.863c-0.23-0.549-0.514-0.958-0.566-1.395
			c-0.143-1.187-0.236-2.385-0.268-3.581c-0.086-3.368-0.398-6.69-1.43-9.931c-2.703-8.495-10.742-13.242-17.947-12.968
			c-2.883,0.11-5.74,0.365-8.551,1.037c-1.941,0.464-3.875,0.968-5.816,1.438c-0.438,0.105-0.893,0.14-1.396,0.215
			c-0.172-0.502-0.303-0.871-0.422-1.243c-0.492-1.52-0.92-3.063-1.48-4.557c-1.314-3.499-3.246-6.614-6.168-8.995
			c-4.285-3.491-9.193-5.744-14.549-7.052c-4.371-1.067-8.811-1.501-13.305-1.523c-4.098-0.021-8.154,0.382-12.131,1.3
			c-5.916,1.365-11.229,4.021-16.105,7.672c-4.09,3.063-7.549,6.637-10.217,10.989c-3.307,5.393-4.703,11.143-3.336,17.428
			c0.098,0.451,0.107,0.92,0.176,1.545c-0.979,0-1.846,0.013-2.711-0.002c-2.123-0.039-4.121,0.459-6.006,1.417
			c-1.068,0.543-2.117,1.126-3.186,1.669c-1.465,0.744-2.234,2.004-2.66,3.524c-0.395,1.402-0.553,2.828-0.262,4.266
			c0.629,3.132,1.281,6.259,1.939,9.384c0.16,0.759,0.473,1.497,0.303,2.422c-0.939,0.134-1.801,0.25-2.66,0.382
			c-1.105,0.17-2.234,0.256-3.305,0.553c-2.24,0.622-3.719,1.984-4.197,4.398C395.916,265.948,396.596,268.366,398.24,270.761z
			 M225.039,328.361c0.141-0.827,0.2-1.377,0.33-1.912c1.472-6.063,0.543-11.745-2.807-16.992
			c-2.735-4.284-6.567-7.205-11.527-8.388c-5.316-1.268-10.624-1.033-15.839,0.703c-5.085,1.693-9.487,4.525-13.559,7.957
			c-2.86,2.411-5.006,5.358-6.805,8.589c-1.215,2.183-1.949,4.531-2.17,7.059c-0.32-0.033-0.625,0.029-0.771-0.095
			c-1.236-1.058-2.734-1.325-4.264-1.344c-3.436-0.042-6.873-0.021-10.308,0.024c-1.46,0.02-2.808,0.481-4.072,1.249
			c-1.98,1.201-3.936,2.475-6.029,3.444c-1.239,0.574-2.098,1.334-2.805,2.434c-0.646,1.007-1.412,1.938-2.1,2.919
			c-0.366,0.522-0.737,1.054-1.003,1.629c-1.383,2.985-2.46,6.084-2.985,9.333c-0.343,2.127-0.49,4.291,0.314,6.393
			c0.088,0.23-0.074,0.557-0.147,1.008c-0.897-0.311-1.641-0.566-2.384-0.825c-2.285-0.797-4.621-1.243-7.057-1.104
			c-4.975,0.286-8.382,2.7-10.219,7.36c-1.59,4.037-1.405,8.117-0.512,12.254c0.911,4.219,2.992,7.891,5.223,11.504
			c0.739,1.197,1.722,1.69,3.176,1.652c4.394-0.115,8.792-0.102,13.188-0.131c9.193-0.064,18.386-0.121,27.579-0.185
			c8.792-0.062,17.583-0.133,26.375-0.192c6.235-0.041,12.471-0.07,18.707-0.105c0.16,0,0.319,0,0.479-0.002
			c12.227-0.159,24.454-0.3,36.68-0.486c4.872-0.074,9.743-0.244,14.614-0.39c0.371-0.011,0.736-0.173,1.05-0.25
			c0.745-3.387,0.738-6.919,0.009-9.869c-1.377-5.569-6.123-9.092-11.876-8.7c-1.827,0.124-3.632,0.537-5.452,0.783
			c-0.417,0.057-0.853-0.028-1.413-0.054c0.402-1.249,0.754-2.305,1.082-3.368c1.115-3.623,1.652-7.322,1.354-11.115
			c-0.234-2.986-1.084-5.78-2.528-8.424c-2.035-3.725-4.784-6.754-8.28-9.155c-2.978-2.045-6.174-3.316-9.841-3.213
			C227.416,328.385,226.384,328.361,225.039,328.361z M445.848,185.589c0.809-1.499,1.555-2.815,2.24-4.163
			c1.379-2.708,2.652-5.461,3.396-8.428c0.857-3.414,1.016-6.809-0.414-10.11c-1.732-4.002-4.539-6.702-9.07-7.237
			c-2.82-0.333-5.578-0.223-8.256,0.85c-0.779,0.313-1.547,0.838-2.604,0.487c0.053-0.29,0.111-0.579,0.154-0.869
			c0.186-1.257,0.592-2.53,0.508-3.77c-0.361-5.354-2.379-10.059-5.928-14.092c-0.314-0.357-0.674-0.684-1.049-0.98
			c-4.273-3.377-8.98-5.845-14.455-6.521c-4.078-0.504-8.145-0.647-11.891,1.573c-0.359,0.214-0.857,0.195-1.344,0.296
			c-0.193-0.851-0.414-1.541-0.496-2.246c-0.324-2.733-1.285-5.266-2.375-7.76c-1.578-3.615-4.063-6.518-7.279-8.729
			c-4.895-3.366-10.48-4.699-16.318-4.834c-3.342-0.078-6.709,0.171-10.01,0.88c-3.459,0.745-6.805,1.804-9.758,3.819
			c-4.969,3.392-7.393,8.033-6.781,14.121c0.209,2.076,0.635,4.103,1.303,6.082c0.141,0.416,0.455,0.854-0.039,1.436
			c-0.777-0.078-1.641-0.168-2.504-0.249c-0.555-0.052-1.115-0.154-1.666-0.125c-4.262,0.23-8.117,1.57-11.512,4.208
			c-1.846,1.434-3.363,3.174-4.926,4.889c-1.893,2.079-2.961,4.529-3.543,7.226c-0.285,1.328-0.539,2.666-0.725,4.01
			c-0.121,0.862-0.154,1.747-0.115,2.616c0.102,2.256,0.717,4.399,1.494,6.512c0.402,1.092,0.996,2.144,1.053,3.362
			c-0.893,0.323-1.66,0.045-2.434-0.105c-1.965-0.382-3.936-0.685-5.947-0.548c-4.266,0.289-9.881,3.528-10.372,9.851
			c-0.188,2.409,0.023,4.782,0.178,7.167c0.076,1.165,0.498,1.548,1.682,1.57c1.598,0.029,3.195-0.052,4.795-0.052
			c43.264-0.003,86.527-0.001,129.789-0.008C442.309,185.715,443.984,185.636,445.848,185.589z M143.067,193.66
			c-0.512-1.102-0.956-2.021-1.369-2.953c-1.425-3.213-2.783-6.449-4.798-9.372c-1.951-2.829-4.379-5.069-7.449-6.586
			c-2.59-1.28-5.348-2.084-8.161-2.736c-3.065-0.71-5.989-0.408-8.915,0.735c-3.529,1.378-6.771,3.197-9.812,5.457
			c-3.085,2.293-5.088,5.238-6.089,8.916c-0.208,0.762-0.475,1.508-0.754,2.387c-1.42-0.305-2.604-0.986-3.856-1.462
			c-2.252-0.856-4.496-1.479-6.986-1.325c-6.079,0.378-10.929,4.872-11.964,10.609c-0.471,2.611-0.551,5.237-0.769,7.861
			c-0.051,0.618-0.114,1.235-0.179,1.933c-1.275,0.232-2.464,0.369-3.606,0.676c-1.692,0.455-3.434,0.856-5.011,1.589
			c-5.166,2.399-8.418,9.097-6.842,14.704c0.428,1.522,1.096,3.007,1.853,4.401c1.228,2.26,1.325,2.237,3.977,2.243
			c0.56,0.001,1.12,0,1.68,0c26.958,0,53.915,0,80.872,0c7.519,0,15.039,0.006,22.558-0.009c0.862-0.001,1.752,0.156,2.619-0.209
			c0.457-1.226-0.081-2.394-0.073-3.566c0.011-1.618-0.906-2.701-2.111-3.558c-0.775-0.551-1.665-0.941-2.507-1.397
			c-0.398-0.215-0.804-0.416-1.357-0.701c0.579-0.79,1.061-1.405,1.496-2.052c0.669-0.993,1.571-1.927,1.904-3.028
			c0.89-2.943,0.623-5.953-0.938-8.579c-2.144-3.61-5.412-5.556-9.743-5.433c-0.542,0.016-1.089-0.085-1.598-0.129
			c-0.299-0.866,0.109-1.513,0.345-2.168c0.672-1.866,0.192-3.495-1.09-4.863c-1.588-1.694-3.572-2.606-5.94-2.722
			C146.625,192.231,145.003,192.858,143.067,193.66z M139.948,289.125c-0.572-1.144-0.069-1.875,0.422-2.622
			c1.355-2.062,2-4.387,2.03-6.798c0.088-7.03-4.557-12.154-10.838-13.729c-4.517-1.133-8.878-0.529-12.917,1.919
			c-0.398,0.242-0.838,0.413-1.302,0.638c-0.684-0.702-0.948-1.553-1.28-2.351c-0.802-1.929-1.863-3.706-3.01-5.443
			c-1.312-1.987-3.059-3.417-5.181-4.492c-2.646-1.341-5.351-2.498-8.212-3.282c-2.907-0.797-5.882-0.939-8.772-0.231
			c-3.793,0.928-7.042,2.914-9.751,5.797c-2.671,2.843-4.612,6.135-6.043,9.706c-0.947,2.359-1.727,4.81-2.075,7.362
			c-0.388,2.85-0.692,5.703-0.706,8.584c-0.002,0.51-0.235,1.019-0.406,1.708c-0.557-0.392-0.947-0.65-1.319-0.932
			c-1.41-1.064-2.887-2.014-4.581-2.56c-3.286-1.058-6.455-1.019-9.361,1.116c-3.579,2.63-6.004,6.56-4.516,11.672
			c0.243,0.835,0.575,1.647,0.904,2.455c0.295,0.722,0.645,1.423,1.004,2.207c-0.614,0.428-1.116,0.809-1.646,1.142
			c-1.285,0.809-2.62,1.542-3.869,2.401c-2.175,1.496-3.123,3.681-3.457,6.312c1.056,0.355,2.013,0.228,2.948,0.228
			c35.255,0.006,70.51,0.006,105.765,0.005c0.56,0,1.123,0.036,1.677-0.018c0.448-0.043,0.886-0.194,1.46-0.328
			c0-0.726,0.014-1.358-0.002-1.989c-0.067-2.564-1.23-4.19-3.661-5.036c-1.053-0.367-2.123-0.688-3.274-0.622
			c-0.512,0.03-1.033-0.09-1.776-0.166c0.487-0.985,0.851-1.767,1.254-2.527c0.588-1.108,0.702-2.231,0.429-3.47
			c-0.693-3.14-2.659-5.031-5.668-5.861C142.846,289.542,141.412,289.39,139.948,289.125z M161.395,446.948
			c-0.063-1.21-0.135-2.086-0.149-2.963c-0.077-4.492-0.545-8.939-1.708-13.283c-1.015-3.79-2.252-7.5-4.518-10.777
			c-4.029-5.825-9.418-9.537-16.542-10.293c-4.107-0.437-7.918,0.622-11.201,3.266c-2.067,1.664-3.794,3.649-5.522,5.648
			c-2.027,2.345-3.411,5-4.247,7.968c-0.169,0.604-0.411,1.187-0.677,1.944c-1.365-0.501-2.618-0.996-3.895-1.421
			c-3.447-1.145-6.756-1.433-10.136,0.577c-4.006,2.382-6.509,5.571-6.854,10.285c-0.216,2.947-0.383,5.897-0.57,8.847
			c-0.045,0.705,0.057,1.449-0.612,2.079c-0.793-0.234-1.621-0.505-2.461-0.721c-1.739-0.447-3.504-0.565-5.183,0.153
			c-2.256,0.965-4.136,2.45-5.333,4.633c-1.814,3.31-2.688,6.844-2.097,10.623c0.32,2.045,0.842,4.051,2.241,5.716
			c0.525,0.023,1.001,0.064,1.478,0.064c33.826-0.017,67.653-0.036,101.479-0.058c0.075,0,0.155-0.031,0.225-0.064
			c0.071-0.035,0.132-0.091,0.327-0.23c1.412-2.163,1.543-4.624,1.084-7.238c-0.56-3.184-2.41-5.115-5.42-6.064
			c-0.514-0.162-1.013-0.376-1.54-0.574c-0.194-1.446-0.433-2.786-0.54-4.136c-0.118-1.485-0.704-2.788-1.426-4.033
			c-0.661-1.139-1.631-1.96-2.957-2.268c-3.43-0.796-6.806-0.925-10.03,0.819c-0.703,0.38-1.403,0.766-2.116,1.125
			C162.231,446.704,161.933,446.768,161.395,446.948z M186.152,249.563c-1.588,0-2.941,0.057-4.287-0.015
			c-1.553-0.083-2.781,0.502-3.885,1.529c-1.901,1.767-3.349,3.845-4.471,6.177c-1.674,3.48-1.948,7.225-2.087,10.986
			c-0.047,1.252-0.24,2.55,0.28,3.79c0.953,0.444,1.924,0.265,2.862,0.266c33.679,0.01,67.358,0.008,101.037,0.008
			c0.48,0,0.963,0.031,1.439-0.01c0.537-0.047,1.068-0.16,1.604-0.245c0.368-1.177,0.791-2.224,1.015-3.311
			c0.571-2.763-0.268-4.863-2.853-6.19c-0.551-0.283-1.089-0.591-1.655-0.899c0.045-0.911,0.096-1.706,0.121-2.501
			c0.084-2.704-0.628-4.854-4.177-5.8c-0.84-0.224-1.707-0.346-2.721-0.546c-0.627-3.437-1.461-6.818-3.484-9.798
			c-2.108-3.105-4.997-5.149-8.405-6.493c-3.35-1.32-6.825-1.602-10.365-0.831c-3.625,0.79-6.598,2.736-9.181,5.298
			c-0.803-0.59-0.96-1.413-1.269-2.132c-1.201-2.795-2.596-5.488-4.1-8.131c-3.035-5.329-7.296-9.222-13.027-11.526
			c-2.399-0.964-4.864-1.584-7.397-1.934c-6.281-0.868-11.706,0.872-16.091,5.536c-2.504,2.663-4.23,5.803-5.448,9.229
			c-1.586,4.463-2.702,9.029-2.979,13.781C186.56,246.989,186.333,248.168,186.152,249.563z M298.702,231.768
			c-0.862-0.289-1.604-0.524-2.336-0.786c-2.159-0.773-4.374-0.898-6.616-0.52c-2.765,0.467-4.723,1.941-5.431,4.735
			c-0.965,3.81-0.524,7.486,1.538,10.847c1.081,1.762,2.473,3.329,3.655,5.032c0.823,1.185,1.895,1.47,3.281,1.468
			c22.538-0.033,45.077-0.023,67.614-0.028c0.627,0,1.254-0.069,1.93-0.109c0.645-0.97,1.313-1.869,1.867-2.834
			c0.92-1.6,1.582-3.308,1.904-5.137c0.414-2.353,0.01-4.459-1.854-6.115c-0.715-0.634-1.447-1.249-2.199-1.838
			c-0.627-0.493-1.281-0.953-1.945-1.396c-0.65-0.435-0.99-1.011-1.006-1.797c-0.021-0.958-0.053-1.917-0.109-2.874
			c-0.086-1.513-0.164-3.028-0.305-4.537c-0.32-3.427-2.23-5.721-5.248-7.176c-3.086-1.487-6.293-1.608-9.582-0.82
			c-0.826,0.198-1.602,0.789-2.621,0.371c-0.471-0.943-0.947-1.954-1.473-2.939c-1.926-3.621-4.555-6.579-8.322-8.327
			c-4.551-2.11-9.367-2.681-14.277-1.798c-5.148,0.926-9.352,3.565-12.603,7.677c-4.075,5.153-5.993,11.006-5.683,17.581
			C298.898,230.823,298.782,231.207,298.702,231.768z M485.105,113.269c0.85-2.585,0.91-5.086-0.072-7.546
			c-1.152-2.895-3.48-4.492-6.357-5.38c-0.902-0.279-1.834-0.464-2.857-0.718c-0.063-0.916-0.105-1.785-0.184-2.651
			c-0.244-2.708-0.6-5.383-1.475-7.989c-0.822-2.445-2.375-4.128-4.689-5.141c-2.008-0.879-4.109-1.372-6.297-0.909
			c-1.635,0.346-3.232,0.861-4.85,1.294c-0.438,0.117-0.881,0.208-1.447,0.34c-0.369-0.928-0.662-1.749-1.018-2.542
			c-0.686-1.527-1.291-3.095-2.41-4.394c-2.539-2.953-5.777-4.746-9.496-5.703c-2.896-0.745-5.832-0.935-8.75-0.113
			c-3.664,1.033-6.621,3.178-8.922,6.151c-3.945,5.098-5.854,10.933-5.943,17.37c-0.012,0.959,0.008,1.919-0.016,2.878
			c-0.01,0.376,0.064,0.815-0.543,1.12c-0.48-0.125-1.08-0.305-1.691-0.435c-1.795-0.381-3.578-0.833-5.391-1.093
			c-4.412-0.634-6.984,2.223-7.467,5.676c-0.471,3.365,0.195,6.646,1.512,9.716c2.494,0.338,66.146,0.505,76.875,0.216
			C484.084,113.403,484.549,113.326,485.105,113.269z"/>
		<path fill-rule="evenodd" clip-rule="evenodd" d="M235.866,103.005c0.497-0.456,0.858-0.744,1.169-1.079
			c2.633-2.829,5.81-4.61,9.591-5.558c4.706-1.179,9.338-0.975,13.997,0.03c1.325,0.286,2.636,0.65,3.934,1.042
			c4.157,1.258,7.545,3.708,10.651,6.688c2.613,2.506,4.943,5.206,6.928,8.229c2.513,3.827,3.897,8.036,4.371,12.553
			c0.388,3.708,0.432,3.734,4.366,4.219c2.06,0.253,4.153,0.479,6.137,1.048c5.515,1.582,9.101,5.123,10.31,10.847
			c0.197,0.936,0.361,1.894,0.398,2.847c0.127,3.432,0.201,6.866,0.275,10.3c0.008,0.3-0.119,0.604-0.207,1.023
			c-0.496,0.063-0.953,0.15-1.412,0.171c-0.638,0.029-1.28,0.01-1.918,0.01c-63.34,0-126.68,0.001-190.02-0.013
			c-1.093,0-2.231,0.248-3.416-0.333c-0.217-3.343-0.18-6.674,0.825-9.917c0.278-0.9,0.765-1.76,1.286-2.554
			c0.678-1.035,1.654-1.688,2.924-1.905c1.732-0.296,3.444-0.714,5.178-0.995c1.548-0.25,2.438-1.091,2.695-2.619
			c0.132-0.787,0.294-1.574,0.352-2.368c0.186-2.55,0.359-5.102,0.483-7.655c0.156-3.218,0.737-6.338,1.91-9.348
			c2.149-5.516,5.948-9.413,11.471-11.536c3.314-1.274,6.742-1.168,10.148-0.334c1.705,0.418,3.381,0.951,5.071,1.429
			c0.68,0.192,1.361,0.38,2.205,0.616c0.113-0.469,0.251-0.826,0.276-1.191c0.064-0.957,0.152-1.92,0.103-2.874
			c-0.225-4.316,0.683-8.474,2.177-12.439c2.319-6.153,5.377-11.966,9.524-17.115c3.513-4.361,7.93-7.639,12.954-10.083
			c3.032-1.475,6.221-2.512,9.56-3.034c7.182-1.124,13.996-0.092,20.367,3.519c6.195,3.512,10.945,8.541,14.817,14.404
			c4.207,6.371,7.358,13.262,9.468,20.615C235.118,100.703,235.471,101.746,235.866,103.005z"/>
		<path fill-rule="evenodd" clip-rule="evenodd" d="M398.24,270.761c-1.645-2.395-2.324-4.813-1.775-7.587
			c0.479-2.414,1.957-3.776,4.197-4.398c1.07-0.297,2.199-0.382,3.305-0.553c0.859-0.133,1.721-0.248,2.66-0.382
			c0.17-0.925-0.143-1.663-0.303-2.422c-0.658-3.125-1.311-6.252-1.939-9.384c-0.291-1.438-0.133-2.864,0.262-4.266
			c0.426-1.52,1.195-2.78,2.66-3.524c1.068-0.543,2.117-1.126,3.186-1.669c1.885-0.957,3.883-1.455,6.006-1.417
			c0.865,0.016,1.732,0.002,2.711,0.002c-0.068-0.625-0.078-1.094-0.176-1.545c-1.367-6.286,0.029-12.036,3.336-17.428
			c2.668-4.352,6.127-7.925,10.217-10.989c4.877-3.651,10.189-6.307,16.105-7.672c3.977-0.918,8.033-1.321,12.131-1.3
			c4.494,0.022,8.934,0.456,13.305,1.523c5.355,1.308,10.264,3.561,14.549,7.052c2.922,2.381,4.854,5.497,6.168,8.995
			c0.561,1.494,0.988,3.037,1.48,4.557c0.119,0.372,0.25,0.741,0.422,1.243c0.504-0.076,0.959-0.11,1.396-0.215
			c1.941-0.469,3.875-0.973,5.816-1.438c2.811-0.671,5.668-0.927,8.551-1.037c7.205-0.274,15.244,4.473,17.947,12.968
			c1.031,3.24,1.344,6.563,1.43,9.931c0.031,1.196,0.125,2.394,0.268,3.581c0.053,0.437,0.336,0.846,0.566,1.395
			c0.924-0.312,1.738-0.59,2.557-0.863c7.426-2.48,12.928,3.019,13.584,8.269c0.283,2.265-0.484,4.237-1.488,6.17
			c-0.281,0.542-0.58,1.074-0.994,1.837c0.961,0,1.656,0.036,2.348-0.007c2.268-0.139,4.465,0.222,6.613,0.916
			c0.68,0.22,1.34,0.519,1.98,0.836c0.9,0.446,1.523,1.148,1.779,2.145c0.1,0.387,0.17,0.79,0.332,1.149
			c0.846,1.883-0.049,3.244-1.365,4.426c-0.313,0.282-0.861,0.381-1.314,0.414c-1.193,0.086-2.395,0.099-3.594,0.122
			c-0.879,0.017-1.76,0.002-2.639,0.004c-12.318,0.026-24.635,0.048-36.951,0.082c-9.277,0.026-18.555,0.056-27.832,0.104
			c-9.834,0.051-19.668,0.128-29.502,0.189c-6.318,0.04-12.635,0.072-18.953,0.104c-5.758,0.029-11.516,0.065-17.273,0.077
			c-6.398,0.014-12.795,0.003-19.191,0.003C399.941,270.761,399.068,270.761,398.24,270.761z"/>
		<path fill-rule="evenodd" clip-rule="evenodd" d="M225.039,328.361c1.345,0,2.377,0.024,3.408-0.004
			c3.667-0.104,6.863,1.168,9.841,3.213c3.496,2.4,6.245,5.43,8.28,9.155c1.444,2.644,2.294,5.438,2.528,8.424
			c0.297,3.793-0.239,7.492-1.354,11.115c-0.327,1.063-0.679,2.119-1.082,3.368c0.56,0.025,0.996,0.11,1.413,0.054
			c1.82-0.246,3.625-0.659,5.452-0.783c5.753-0.392,10.499,3.131,11.876,8.7c0.729,2.95,0.736,6.482-0.009,9.869
			c-0.314,0.077-0.68,0.239-1.05,0.25c-4.871,0.146-9.742,0.315-14.614,0.39c-12.227,0.187-24.454,0.327-36.68,0.486
			c-0.16,0.002-0.32,0.002-0.479,0.002c-6.236,0.035-12.471,0.064-18.707,0.105c-8.792,0.06-17.583,0.131-26.375,0.192
			c-9.193,0.063-18.386,0.12-27.579,0.185c-4.396,0.029-8.794,0.016-13.188,0.131c-1.454,0.038-2.437-0.455-3.176-1.652
			c-2.231-3.613-4.312-7.285-5.223-11.504c-0.893-4.137-1.079-8.217,0.512-12.254c1.836-4.66,5.244-7.074,10.219-7.36
			c2.436-0.14,4.771,0.307,7.057,1.104c0.743,0.259,1.487,0.515,2.384,0.825c0.073-0.451,0.235-0.777,0.147-1.008
			c-0.804-2.102-0.657-4.266-0.314-6.393c0.524-3.249,1.602-6.348,2.985-9.333c0.266-0.575,0.638-1.107,1.003-1.629
			c0.688-0.982,1.453-1.912,2.1-2.919c0.707-1.1,1.565-1.86,2.805-2.434c2.093-0.97,4.049-2.243,6.029-3.444
			c1.264-0.767,2.612-1.229,4.072-1.249c3.436-0.046,6.873-0.066,10.308-0.024c1.529,0.019,3.027,0.286,4.264,1.344
			c0.145,0.125,0.45,0.062,0.771,0.095c0.222-2.528,0.955-4.876,2.17-7.059c1.799-3.231,3.945-6.178,6.805-8.589
			c4.071-3.432,8.474-6.264,13.559-7.957c5.216-1.736,10.523-1.971,15.839-0.703c4.96,1.183,8.792,4.104,11.527,8.388
			c3.35,5.247,4.279,10.928,2.807,16.992C225.239,326.983,225.179,327.534,225.039,328.361z"/>
		<path fill-rule="evenodd" clip-rule="evenodd" d="M445.848,185.589c-1.863,0.047-3.539,0.126-5.217,0.126
			c-43.262,0.007-86.525,0.005-129.789,0.008c-1.6,0-3.197,0.082-4.795,0.052c-1.184-0.022-1.606-0.405-1.682-1.57
			c-0.154-2.384-0.365-4.758-0.178-7.167c0.49-6.323,6.106-9.562,10.372-9.851c2.012-0.136,3.982,0.166,5.947,0.548
			c0.773,0.15,1.541,0.428,2.434,0.105c-0.057-1.218-0.65-2.27-1.053-3.362c-0.777-2.112-1.393-4.255-1.494-6.512
			c-0.039-0.87-0.006-1.754,0.115-2.616c0.186-1.344,0.439-2.682,0.725-4.01c0.582-2.697,1.65-5.147,3.543-7.226
			c1.563-1.715,3.08-3.455,4.926-4.889c3.395-2.638,7.25-3.978,11.512-4.208c0.551-0.029,1.111,0.073,1.666,0.125
			c0.863,0.081,1.727,0.171,2.504,0.249c0.494-0.582,0.18-1.02,0.039-1.436c-0.668-1.979-1.094-4.006-1.303-6.082
			c-0.611-6.087,1.813-10.729,6.781-14.121c2.953-2.016,6.299-3.075,9.758-3.819c3.301-0.709,6.668-0.958,10.01-0.88
			c5.838,0.136,11.424,1.468,16.318,4.834c3.217,2.212,5.701,5.115,7.279,8.729c1.09,2.494,2.051,5.026,2.375,7.76
			c0.082,0.706,0.303,1.395,0.496,2.246c0.486-0.101,0.984-0.082,1.344-0.296c3.746-2.22,7.813-2.077,11.891-1.573
			c5.475,0.676,10.182,3.144,14.455,6.521c0.375,0.296,0.734,0.623,1.049,0.98c3.549,4.034,5.566,8.739,5.928,14.092
			c0.084,1.239-0.322,2.512-0.508,3.77c-0.043,0.291-0.102,0.579-0.154,0.869c1.057,0.351,1.824-0.175,2.604-0.487
			c2.678-1.073,5.436-1.184,8.256-0.85c4.531,0.536,7.338,3.235,9.07,7.237c1.43,3.301,1.271,6.696,0.414,10.11
			c-0.744,2.967-2.018,5.72-3.396,8.428C447.402,182.773,446.656,184.09,445.848,185.589z"/>
		<path fill-rule="evenodd" clip-rule="evenodd" d="M143.067,193.66c1.937-0.801,3.559-1.429,5.387-1.339
			c2.368,0.116,4.352,1.028,5.94,2.722c1.282,1.368,1.762,2.998,1.09,4.863c-0.236,0.656-0.644,1.303-0.345,2.168
			c0.509,0.044,1.056,0.145,1.598,0.129c4.332-0.124,7.6,1.823,9.743,5.433c1.56,2.626,1.827,5.636,0.938,8.579
			c-0.333,1.102-1.235,2.036-1.904,3.028c-0.436,0.647-0.917,1.262-1.496,2.052c0.553,0.285,0.959,0.485,1.357,0.701
			c0.842,0.456,1.731,0.847,2.507,1.397c1.206,0.857,2.122,1.94,2.111,3.558c-0.008,1.173,0.53,2.34,0.073,3.566
			c-0.867,0.365-1.757,0.208-2.619,0.209c-7.519,0.015-15.039,0.009-22.558,0.009c-26.957,0-53.915,0-80.872,0
			c-0.56,0-1.12,0.001-1.68,0c-2.652-0.006-2.749,0.017-3.977-2.243c-0.757-1.394-1.425-2.878-1.853-4.401
			c-1.576-5.607,1.677-12.305,6.842-14.704c1.577-0.733,3.319-1.134,5.011-1.589c1.143-0.307,2.331-0.443,3.606-0.676
			c0.065-0.697,0.127-1.314,0.179-1.933c0.218-2.624,0.297-5.25,0.769-7.861c1.035-5.738,5.885-10.231,11.964-10.609
			c2.49-0.155,4.733,0.468,6.986,1.325c1.252,0.476,2.436,1.158,3.856,1.462c0.279-0.879,0.547-1.625,0.754-2.387
			c1.001-3.678,3.003-6.623,6.089-8.916c3.042-2.26,6.283-4.079,9.812-5.457c2.926-1.143,5.85-1.445,8.915-0.735
			c2.813,0.652,5.57,1.456,8.161,2.736c3.07,1.517,5.499,3.757,7.449,6.586c2.016,2.923,3.374,6.159,4.798,9.372
			C142.111,191.639,142.555,192.558,143.067,193.66z"/>
		<path fill-rule="evenodd" clip-rule="evenodd" d="M139.948,289.125c1.464,0.265,2.898,0.417,4.271,0.795
			c3.01,0.83,4.975,2.721,5.668,5.861c0.273,1.239,0.159,2.362-0.429,3.47c-0.404,0.76-0.767,1.542-1.254,2.527
			c0.743,0.075,1.264,0.195,1.776,0.166c1.151-0.067,2.221,0.255,3.274,0.622c2.431,0.846,3.594,2.472,3.661,5.036
			c0.016,0.631,0.002,1.263,0.002,1.989c-0.575,0.134-1.012,0.285-1.46,0.328c-0.555,0.053-1.118,0.018-1.677,0.018
			c-35.255,0-70.51,0.001-105.765-0.005c-0.935,0-1.892,0.127-2.948-0.228c0.333-2.63,1.282-4.816,3.457-6.312
			c1.249-0.859,2.584-1.593,3.869-2.401c0.531-0.333,1.032-0.714,1.646-1.142c-0.359-0.784-0.708-1.484-1.004-2.207
			c-0.33-0.807-0.661-1.619-0.904-2.455c-1.489-5.112,0.937-9.042,4.516-11.672c2.906-2.135,6.075-2.174,9.361-1.116
			c1.694,0.546,3.171,1.495,4.581,2.56c0.373,0.281,0.762,0.54,1.319,0.932c0.171-0.69,0.404-1.199,0.406-1.708
			c0.014-2.881,0.318-5.734,0.706-8.584c0.348-2.553,1.128-5.003,2.075-7.362c1.432-3.57,3.373-6.863,6.043-9.706
			c2.709-2.883,5.958-4.869,9.751-5.797c2.89-0.708,5.865-0.565,8.772,0.231c2.862,0.784,5.566,1.941,8.212,3.282
			c2.122,1.076,3.869,2.505,5.181,4.492c1.147,1.737,2.208,3.515,3.01,5.443c0.332,0.797,0.596,1.649,1.28,2.351
			c0.464-0.225,0.904-0.396,1.302-0.638c4.039-2.448,8.4-3.052,12.917-1.919c6.281,1.576,10.926,6.7,10.838,13.729
			c-0.03,2.411-0.675,4.737-2.03,6.798C139.879,287.25,139.376,287.981,139.948,289.125z"/>
		<path fill-rule="evenodd" clip-rule="evenodd" d="M161.395,446.948c0.538-0.181,0.836-0.244,1.099-0.376
			c0.713-0.359,1.414-0.745,2.116-1.125c3.224-1.744,6.6-1.615,10.03-0.819c1.325,0.308,2.296,1.129,2.957,2.268
			c0.722,1.245,1.308,2.548,1.426,4.033c0.107,1.35,0.346,2.689,0.54,4.136c0.527,0.198,1.026,0.412,1.54,0.574
			c3.01,0.949,4.861,2.881,5.42,6.064c0.459,2.614,0.328,5.075-1.084,7.238c-0.195,0.14-0.256,0.195-0.327,0.23
			c-0.069,0.033-0.149,0.064-0.225,0.064c-33.827,0.021-67.653,0.041-101.479,0.058c-0.477,0-0.953-0.041-1.478-0.064
			c-1.398-1.665-1.92-3.671-2.241-5.716c-0.592-3.779,0.283-7.313,2.097-10.623c1.197-2.183,3.076-3.668,5.333-4.633
			c1.679-0.719,3.444-0.601,5.183-0.153c0.841,0.216,1.668,0.486,2.461,0.721c0.669-0.63,0.567-1.374,0.612-2.079
			c0.188-2.949,0.354-5.899,0.57-8.847c0.345-4.714,2.848-7.903,6.854-10.285c3.38-2.01,6.689-1.722,10.136-0.577
			c1.277,0.425,2.529,0.92,3.895,1.421c0.266-0.758,0.508-1.341,0.677-1.944c0.835-2.968,2.219-5.623,4.247-7.968
			c1.728-1.999,3.456-3.984,5.522-5.648c3.283-2.644,7.093-3.702,11.201-3.266c7.124,0.756,12.513,4.468,16.542,10.293
			c2.266,3.277,3.503,6.987,4.518,10.777c1.163,4.344,1.631,8.791,1.708,13.283C161.26,444.862,161.332,445.738,161.395,446.948z"/>
		<path fill-rule="evenodd" clip-rule="evenodd" d="M186.152,249.563c0.181-1.395,0.407-2.574,0.476-3.762
			c0.276-4.752,1.392-9.318,2.979-13.781c1.218-3.426,2.944-6.566,5.448-9.229c4.385-4.664,9.81-6.404,16.091-5.536
			c2.533,0.35,4.999,0.97,7.397,1.934c5.731,2.304,9.993,6.197,13.027,11.526c1.504,2.643,2.899,5.336,4.1,8.131
			c0.309,0.719,0.466,1.542,1.269,2.132c2.583-2.563,5.556-4.509,9.181-5.298c3.54-0.771,7.016-0.489,10.365,0.831
			c3.409,1.344,6.297,3.387,8.405,6.493c2.023,2.98,2.857,6.362,3.484,9.798c1.014,0.201,1.881,0.323,2.721,0.546
			c3.549,0.947,4.261,3.096,4.177,5.8c-0.025,0.795-0.076,1.59-0.121,2.501c0.565,0.308,1.104,0.616,1.655,0.899
			c2.585,1.327,3.423,3.427,2.853,6.19c-0.224,1.087-0.647,2.134-1.015,3.311c-0.536,0.084-1.067,0.197-1.604,0.245
			c-0.477,0.042-0.959,0.01-1.439,0.01c-33.679,0-67.357,0.001-101.037-0.008c-0.938,0-1.909,0.178-2.862-0.266
			c-0.52-1.24-0.327-2.538-0.28-3.79c0.14-3.761,0.413-7.506,2.087-10.986c1.122-2.332,2.569-4.41,4.471-6.177
			c1.104-1.026,2.333-1.612,3.885-1.529C183.211,249.62,184.564,249.563,186.152,249.563z"/>
		<path fill-rule="evenodd" clip-rule="evenodd" d="M298.702,231.768c0.08-0.562,0.196-0.945,0.179-1.322
			c-0.311-6.575,1.607-12.428,5.683-17.581c3.251-4.112,7.455-6.751,12.603-7.677c4.91-0.883,9.727-0.312,14.277,1.798
			c3.768,1.748,6.396,4.706,8.322,8.327c0.525,0.985,1.002,1.996,1.473,2.939c1.02,0.417,1.795-0.173,2.621-0.371
			c3.289-0.788,6.496-0.667,9.582,0.82c3.018,1.455,4.928,3.749,5.248,7.176c0.141,1.509,0.219,3.023,0.305,4.537
			c0.057,0.957,0.088,1.916,0.109,2.874c0.016,0.786,0.355,1.363,1.006,1.797c0.664,0.443,1.318,0.904,1.945,1.396
			c0.752,0.59,1.484,1.205,2.199,1.838c1.863,1.655,2.268,3.762,1.854,6.115c-0.322,1.829-0.984,3.538-1.904,5.137
			c-0.555,0.965-1.223,1.864-1.867,2.834c-0.676,0.04-1.303,0.109-1.93,0.109c-22.537,0.005-45.076-0.005-67.614,0.028
			c-1.387,0.002-2.458-0.283-3.281-1.468c-1.182-1.703-2.574-3.27-3.655-5.032c-2.062-3.36-2.503-7.037-1.538-10.847
			c0.708-2.793,2.667-4.268,5.431-4.735c2.242-0.379,4.457-0.253,6.616,0.52C297.097,231.244,297.839,231.479,298.702,231.768z"/>
		<path fill-rule="evenodd" clip-rule="evenodd" d="M485.105,113.269c-0.557,0.057-1.021,0.134-1.488,0.147
			c-10.729,0.29-74.381,0.123-76.875-0.216c-1.316-3.07-1.982-6.351-1.512-9.716c0.482-3.453,3.055-6.31,7.467-5.676
			c1.813,0.26,3.596,0.712,5.391,1.093c0.611,0.13,1.211,0.31,1.691,0.435c0.607-0.305,0.533-0.744,0.543-1.12
			c0.023-0.959,0.004-1.919,0.016-2.878c0.09-6.437,1.998-12.272,5.943-17.37c2.301-2.973,5.258-5.118,8.922-6.151
			c2.918-0.822,5.854-0.632,8.75,0.113c3.719,0.957,6.957,2.75,9.496,5.703c1.119,1.299,1.725,2.867,2.41,4.394
			c0.355,0.793,0.648,1.614,1.018,2.542c0.566-0.132,1.01-0.223,1.447-0.34c1.617-0.433,3.215-0.949,4.85-1.294
			c2.188-0.463,4.289,0.029,6.297,0.909c2.314,1.013,3.867,2.696,4.689,5.141c0.875,2.606,1.23,5.282,1.475,7.989
			c0.078,0.866,0.121,1.736,0.184,2.651c1.023,0.254,1.955,0.439,2.857,0.718c2.877,0.889,5.205,2.486,6.357,5.38
			C486.016,108.183,485.955,110.684,485.105,113.269z"/>
	</g>
</g>
</svg>
