<?xml version="1.0" encoding="utf-8"?>
<!-- Generator: Adobe Illustrator 19.0.0, SVG Export Plug-In . SVG Version: 6.00 Build 0)  -->
<svg version="1.1" id="Warstwa_1" xmlns="http://www.w3.org/2000/svg" xmlns:xlink="http://www.w3.org/1999/xlink" x="0px" y="0px"
	 viewBox="216 -217.1 1000 684.7" style="enable-background:new 216 -217.1 1000 684.7;" xml:space="preserve">
<g>
	<g transform="translate(0.000000,511.000000) scale(0.100000,-0.100000)">
		<path d="M2308.2,4115.2c-7.7-5.7-13.4-24.9-13.4-38.3c0-15.3,141.7-419.3,315.9-899.9c174.3-480.6,315.9-877,315.9-880.8
			c0-1.9-151.3-5.7-337-5.7c-260.4,0-335.1-5.7-329.3-23c3.8-13.4,141.7-93.9,306.4-178.1c277.6-141.7,300.6-157,312.1-212.5
			c15.3-84.3,90-153.2,260.4-237.4c472.9-239.3,1648.6-499.7,2717-603.1c174.3-17.2,568.7-36.4,877-42.1l561-11.5l-36.4-40.2
			c-61.3-67-80.4-118.7-80.4-216.4c0-174.2,120.6-292.9,296.8-292.9c266.2,0,400.2,292.9,227.9,497.8l-49.8,57.4h70.9
			c51.7,0,84.3-15.3,126.4-57.4c90-90,405.9-180,844.4-243.2c314-44,379.1-47.9,471-28.7c183.8,38.3,350.4,149.4,417.4,277.6
			l28.7,51.7h373.4h375.3l-49.8-57.4c-172.3-206.8-38.3-497.8,229.8-497.8c281.5,0,409.8,360,189.6,532.3
			c-59.3,47.9-51.7,53.6,103.4,68.9c166.6,19.1,555.3,118.7,729.5,187.6c204.9,80.4,327.4,155.1,419.3,254.7
			c65.1,70.8,78.5,97.7,78.5,164.7c0,45.9-15.3,105.3-38.3,139.8c-111.1,180-549.5,367.6-1110.5,474.9
			c-218.3,42.1-233.6,42.1-3033,47.9l-2812.8,7.7l-356.2,152.9l-356.2,155.1l-737.2,733.3c-620.4,618.5-748.7,737.2-813.8,754.4
			C2719.8,4130.5,2329.2,4136.3,2308.2,4115.2z M4602,1838.6c65.1-67-5.7-197.2-80.4-149.3c-45.9,28.7-53.6,111.1-15.3,149.3
			c17.2,17.2,38.3,30.6,47.9,30.6C4563.8,1869.2,4584.8,1855.8,4602,1838.6z M4896.9,1842.4c13.4-15.3,21.1-57.4,17.2-91.9
			c-5.7-55.5-11.5-63.2-63.2-63.2c-51.7,0-57.4,7.7-63.2,63.2c-5.7,67,21.1,118.7,63.2,118.7
			C4864.4,1869.2,4885.4,1857.7,4896.9,1842.4z M5193.7,1844.3c68.9-51.7,7.6-191.5-72.8-160.8c-38.3,15.3-44.1,158.9-5.8,172.3
			C5151.6,1871.1,5157.3,1871.1,5193.7,1844.3z M5480.9,1857.7c42.1-17.2,42.1-157,0-174.3c-80.4-30.6-141.7,109.2-72.8,160.8
			C5448.4,1873,5442.6,1873,5480.9,1857.7z M5796.9,1842.4c30.6-38.3,19.2-126.4-19.1-151.3c-51.7-32.5-93.8-1.9-93.8,68.9
			C5683.9,1855.8,5747.1,1901.7,5796.9,1842.4z M6093.6,1838.6c36.4-34.5,38.3-72.8,11.5-124.5c-38.3-68.9-134-32.6-134,51.7
			c0,42.1,46,103.4,76.6,103.4C6057.3,1869.2,6078.3,1855.8,6093.6,1838.6z M6390.4,1842.4c13.4-15.3,21.1-57.4,17.2-91.9
			c-5.7-55.5-11.5-63.2-63.2-63.2s-57.4,7.7-63.2,63.2c-5.7,67,21.1,118.7,63.2,118.7C6357.9,1869.2,6378.9,1857.7,6390.4,1842.4z
			 M6687.2,1844.3c68.9-51.7,7.6-191.5-72.8-160.8c-38.3,15.3-44.1,158.9-5.8,172.3C6645.1,1871.1,6650.8,1871.1,6687.2,1844.3z
			 M6974.4,1857.7c42.1-17.2,42.1-157,0-174.3c-80.4-30.6-141.7,109.2-72.8,160.8C6941.9,1873,6936.1,1873,6974.4,1857.7z
			 M7280.8,1844.3c68.9-51.7,7.7-191.5-72.8-160.8c-38.3,15.3-44.1,158.9-5.8,172.3C7238.7,1871.1,7244.4,1871.1,7280.8,1844.3z
			 M7568,1857.7c42.1-17.2,42.1-157,0-174.3c-80.4-30.6-141.7,109.2-72.8,160.8C7535.4,1873,7529.7,1873,7568,1857.7z
			 M7883.9,1842.4c13.4-15.3,21.1-57.4,17.2-91.9c-5.7-55.5-11.5-63.2-63.2-63.2s-57.4,7.7-63.2,63.2c-5.7,67,21.1,118.7,63.2,118.7
			C7851.4,1869.2,7872.4,1857.7,7883.9,1842.4z M8180.7,1838.6c59.3-57.4,26.8-160.8-49.8-160.8c-34.5,0-72.8,53.6-72.8,103.4
			c0,30.6,49.8,88.1,76.6,88.1C8144.3,1869.2,8165.4,1855.8,8180.7,1838.6z M8475.6,1846.2c34.5-34.5,28.7-147.4-7.7-162.8
			c-46-17.2-93.8,19.2-99.6,78.5C8356.9,1848.1,8423.9,1897.9,8475.6,1846.2z M8774.3,1844.3c68.9-51.7,7.6-191.5-72.8-160.8
			c-38.3,15.3-44,158.9-5.7,172.3C8732.2,1871.1,8737.9,1871.1,8774.3,1844.3z M9061.5,1857.7c42.1-17.2,42.1-157,0-174.3
			c-80.4-30.6-141.7,109.2-72.8,160.8C9028.9,1873,9023.2,1873,9061.5,1857.7z M9377.4,1842.4c13.4-15.3,21.1-57.4,17.2-91.9
			c-5.7-55.5-11.5-63.2-63.2-63.2s-57.5,7.7-63.2,63.2c-5.7,67,21.1,118.7,63.2,118.7C9344.9,1869.2,9365.9,1857.7,9377.4,1842.4z
			 M9676.1,1838.6c65.1-67-5.7-197.2-80.4-149.3c-45.9,28.7-53.6,111.1-15.3,149.3c17.2,17.2,38.3,30.6,47.9,30.6
			C9637.9,1869.2,9658.9,1855.8,9676.1,1838.6z M9971,1842.4c13.4-15.3,21.1-57.4,17.2-91.9c-5.7-55.5-11.5-63.2-63.2-63.2
			s-57.4,7.7-63.2,63.2c-5.7,67,21.1,118.7,63.2,118.7C9938.5,1869.2,9959.5,1857.7,9971,1842.4z M10267.8,1844.3
			c68.9-51.7,7.7-191.5-72.8-160.8c-38.3,15.3-44,158.9-5.7,172.3C10225.7,1871.1,10231.4,1871.1,10267.8,1844.3z M10555,1857.7
			c42.1-17.2,42.1-157,0-174.3c-80.4-30.6-141.7,109.2-72.8,160.8C10522.5,1873,10516.7,1873,10555,1857.7z M10855.6,1850
			c74.7-42.1,30.7-185.7-53.6-168.5c-42.1,7.7-57.4,118.7-23,160.8C10805.8,1874.9,10807.8,1874.9,10855.6,1850z"/>
	</g>
</g>
</svg>
